<?xml version="1.0" encoding="UTF-8" standalone="no"?><!DOCTYPE svg PUBLIC "-//W3C//DTD SVG 1.1//EN" "http://www.w3.org/Graphics/SVG/1.1/DTD/svg11.dtd"><svg width="100%" height="100%" viewBox="0 0 1689 934" version="1.1" xmlns="http://www.w3.org/2000/svg" xmlns:xlink="http://www.w3.org/1999/xlink" xml:space="preserve" xmlns:serif="http://www.serif.com/" style="fill-rule:evenodd;clip-rule:evenodd;stroke-linecap:square;stroke-linejoin:round;stroke-miterlimit:1.5;"><path d="M767.224,92.368l166.178,373.266l-165.924,-190.05" style="fill:none;stroke:#7cb700;stroke-width:3.33px;"/><path d="M766.727,465.634l166.675,0" style="fill:none;stroke:#7cb700;stroke-width:3.33px;"/><path d="M765.975,659.088l167.427,-191.741l-167.427,374.351" style="fill:none;stroke:#7cb700;stroke-width:3.33px;"/><path d="M307.931,316.09l166.653,-223.722" style="fill:none;stroke:#7cb700;stroke-width:3.33px;"/><path d="M307.931,392.391l166.653,-300.023" style="fill:none;stroke:#7cb700;stroke-width:3.33px;"/><path d="M307.931,464.063l166.653,-188.479" style="fill:none;stroke:#7cb700;stroke-width:3.33px;"/><path d="M307.931,540.223l166.156,-72.876" style="fill:none;stroke:#7cb700;stroke-width:3.33px;"/><path d="M307.931,616.981l166.156,-341.397" style="fill:none;stroke:#7cb700;stroke-width:3.33px;"/><path d="M307.931,616.981l165.405,-149.634" style="fill:none;stroke:#7cb700;stroke-width:3.33px;"/><path d="M307.931,616.981l165.405,42.107" style="fill:none;stroke:#7cb700;stroke-width:3.33px;"/><path d="M307.931,616.981l165.405,224.717" style="fill:none;stroke:#7cb700;stroke-width:3.33px;"/><g><g><path d="M630.371,483.14l67.665,-27.716" style="fill:none;stroke:#fdb50a;stroke-width:0.83px;"/><path d="M625.175,488.335l-28.096,36.808" style="fill:none;stroke:#fdb50a;stroke-width:0.83px;"/><path d="M619.98,483.14l-78.313,-19.421" style="fill:none;stroke:#fdb50a;stroke-width:0.83px;"/><text x="489.369px" y="481.046px" style="font-family:'ArialMT', 'Arial', sans-serif;font-size:11.964px;">x</text><text x="618.721px" y="550.868px" style="font-family:'ArialMT', 'Arial', sans-serif;font-size:11.964px;">y</text><g><path d="M630.371,487.586l-9.642,-9.641l-0.749,0.748l9.642,9.642l0.749,-0.749Z" style="fill:#7cb700;"/><path d="M620.729,488.335l9.642,-9.642l-0.749,-0.748l-9.642,9.641l0.749,0.749Z" style="fill:#7cb700;"/></g><g><path id="patch_7" d="M497.773,539.56l0,-102.522" style="fill:none;stroke:#000;stroke-width:0.63px;stroke-linejoin:miter;stroke-miterlimit:4;"/><path id="patch_9" d="M497.773,539.56l252.082,0" style="fill:none;stroke:#000;stroke-width:0.64px;stroke-linejoin:miter;stroke-miterlimit:4;"/></g><text x="489.369px" y="481.046px" style="font-family:'ArialMT', 'Arial', sans-serif;font-size:11.964px;">x</text><text x="618.721px" y="550.868px" style="font-family:'ArialMT', 'Arial', sans-serif;font-size:11.964px;">y</text><ellipse cx="535.775" cy="463.719" rx="5.892" ry="5.772" style="fill:none;stroke:#00678f;stroke-width:0.83px;stroke-linecap:round;"/><ellipse cx="703.928" cy="452.175" rx="5.892" ry="5.772" style="fill:none;stroke:#00678f;stroke-width:0.83px;stroke-linecap:round;"/><ellipse cx="593.187" cy="529.376" rx="5.892" ry="5.772" style="fill:none;stroke:#00678f;stroke-width:0.83px;stroke-linecap:round;"/><text x="534.159px" y="466.132px" style="font-family:'ArialMT', 'Arial', sans-serif;font-size:6.715px;">1</text><text x="591.396px" y="531.789px" style="font-family:'ArialMT', 'Arial', sans-serif;font-size:6.715px;">2</text><text x="702.072px" y="454.546px" style="font-family:'ArialMT', 'Arial', sans-serif;font-size:6.715px;">3</text></g><rect x="474.584" y="10.37" width="292.64" height="163.996" style="fill:none;stroke:#00678f;stroke-width:4.17px;stroke-linecap:round;"/><rect x="474.584" y="10.37" width="292.64" height="54.944" style="fill:#00678f;"/><text x="596.588px" y="42.858px" style="font-family:'ArialMT', 'Arial', sans-serif;font-size:25px;fill:#fff;">LDA</text><g><rect id="patch_3" x="545.803" y="73.904" width="51.048" height="82.667" style="fill:#00678f;fill-rule:nonzero;"/><rect id="patch_4" x="609.613" y="148.563" width="51.048" height="8.008" style="fill:#fdb50a;fill-rule:nonzero;"/><rect id="patch_5" x="673.423" y="144.812" width="51.048" height="11.76" style="fill:#7cb700;fill-rule:nonzero;"/><g id="matplotlib.axis_1"><g id="xtick_1"><path id="m51184461f5" d="M571.327,156.571l0,2.789" style="fill-rule:nonzero;stroke:#000;stroke-width:0.64px;stroke-linecap:butt;stroke-linejoin:miter;stroke-miterlimit:4;"/><g id="text_1"><path id="DejaVuSans-54" d="M556.818,162.393l4.913,0l0,0.663l-2.061,0l0,5.146l-0.79,0l0,-5.146l-2.062,0l0,-0.663Z" style="fill-rule:nonzero;"/><path id="DejaVuSans-6f" d="M564.125,164.346c-0.383,0 -0.687,0.15 -0.91,0.45c-0.223,0.299 -0.335,0.71 -0.335,1.231c0,0.521 0.111,0.931 0.333,1.231c0.222,0.3 0.526,0.449 0.912,0.449c0.382,0 0.684,-0.15 0.906,-0.45c0.224,-0.301 0.335,-0.711 0.335,-1.23c0,-0.516 -0.111,-0.925 -0.335,-1.227c-0.222,-0.302 -0.524,-0.454 -0.906,-0.454Zm0,-0.606c0.623,0 1.111,0.203 1.467,0.608c0.356,0.404 0.534,0.964 0.534,1.679c0,0.713 -0.178,1.273 -0.534,1.679c-0.356,0.406 -0.844,0.609 -1.467,0.609c-0.625,0 -1.114,-0.203 -1.469,-0.609c-0.353,-0.406 -0.53,-0.966 -0.53,-1.679c0,-0.715 0.177,-1.275 0.53,-1.679c0.355,-0.405 0.844,-0.608 1.469,-0.608Z" style="fill-rule:nonzero;"/><path id="DejaVuSans-70" d="M568.003,167.548l0,2.31l-0.719,0l0,-6.013l0.719,0l0,0.661c0.152,-0.259 0.342,-0.451 0.571,-0.577c0.229,-0.126 0.504,-0.189 0.822,-0.189c0.53,0 0.96,0.21 1.29,0.63c0.331,0.42 0.497,0.972 0.497,1.657c0,0.685 -0.166,1.237 -0.497,1.658c-0.33,0.42 -0.76,0.63 -1.29,0.63c-0.318,0 -0.593,-0.063 -0.822,-0.189c-0.229,-0.126 -0.419,-0.319 -0.571,-0.578Zm2.437,-1.521c0,-0.526 -0.109,-0.939 -0.325,-1.239c-0.217,-0.299 -0.514,-0.449 -0.893,-0.449c-0.379,0 -0.677,0.15 -0.894,0.449c-0.216,0.3 -0.325,0.713 -0.325,1.239c0,0.526 0.109,0.939 0.325,1.239c0.217,0.299 0.515,0.449 0.894,0.449c0.379,0 0.676,-0.15 0.893,-0.449c0.216,-0.3 0.325,-0.713 0.325,-1.239Z" style="fill-rule:nonzero;"/><path id="DejaVuSans-69" d="M572.368,163.845l0.716,0l0,4.357l-0.716,0l0,-4.357Zm0,-1.697l0.716,0l0,0.908l-0.716,0l0,-0.908Z" style="fill-rule:nonzero;"/><path id="DejaVuSans-63" d="M577.717,164.012l0,0.669c-0.202,-0.112 -0.405,-0.196 -0.608,-0.251c-0.204,-0.056 -0.409,-0.084 -0.616,-0.084c-0.465,0 -0.826,0.148 -1.083,0.442c-0.257,0.294 -0.385,0.707 -0.385,1.239c0,0.532 0.128,0.945 0.385,1.24c0.257,0.294 0.618,0.44 1.083,0.44c0.207,0 0.412,-0.027 0.616,-0.083c0.203,-0.056 0.406,-0.139 0.608,-0.251l0,0.662c-0.2,0.093 -0.407,0.162 -0.621,0.209c-0.213,0.047 -0.44,0.071 -0.682,0.071c-0.656,0 -1.178,-0.206 -1.565,-0.619c-0.385,-0.412 -0.578,-0.969 -0.578,-1.669c0,-0.71 0.195,-1.269 0.585,-1.676c0.39,-0.407 0.926,-0.611 1.605,-0.611c0.22,0 0.435,0.023 0.645,0.069c0.21,0.045 0.414,0.112 0.611,0.203Z" style="fill-rule:nonzero;"/><path id="DejaVuSans-31" d="M581.732,167.541l1.283,0l0,-4.432l-1.396,0.28l0,-0.716l1.389,-0.28l0.785,0l0,5.148l1.284,0l0,0.661l-3.345,0l0,-0.661Z" style="fill-rule:nonzero;"/></g></g><g id="xtick_2"><path id="m51184461f51" serif:id="m51184461f5" d="M635.137,156.571l0,2.789" style="fill-rule:nonzero;stroke:#000;stroke-width:0.64px;stroke-linecap:butt;stroke-linejoin:miter;stroke-miterlimit:4;"/><g id="text_2"><path id="DejaVuSans-541" serif:id="DejaVuSans-54" d="M620.627,162.393l4.914,0l0,0.663l-2.062,0l0,5.146l-0.789,0l0,-5.146l-2.063,0l0,-0.663Z" style="fill-rule:nonzero;"/><path id="DejaVuSans-6f1" serif:id="DejaVuSans-6f" d="M627.935,164.346c-0.383,0 -0.687,0.15 -0.91,0.45c-0.223,0.299 -0.335,0.71 -0.335,1.231c0,0.521 0.111,0.931 0.332,1.231c0.223,0.3 0.527,0.449 0.913,0.449c0.382,0 0.684,-0.15 0.906,-0.45c0.223,-0.301 0.335,-0.711 0.335,-1.23c0,-0.516 -0.112,-0.925 -0.335,-1.227c-0.222,-0.302 -0.524,-0.454 -0.906,-0.454Zm0,-0.606c0.622,0 1.111,0.203 1.466,0.608c0.356,0.404 0.534,0.964 0.534,1.679c0,0.713 -0.178,1.273 -0.534,1.679c-0.355,0.406 -0.844,0.609 -1.466,0.609c-0.625,0 -1.115,-0.203 -1.469,-0.609c-0.353,-0.406 -0.53,-0.966 -0.53,-1.679c0,-0.715 0.177,-1.275 0.53,-1.679c0.354,-0.405 0.844,-0.608 1.469,-0.608Z" style="fill-rule:nonzero;"/><path id="DejaVuSans-701" serif:id="DejaVuSans-70" d="M631.813,167.548l0,2.31l-0.719,0l0,-6.013l0.719,0l0,0.661c0.151,-0.259 0.341,-0.451 0.57,-0.577c0.23,-0.126 0.504,-0.189 0.823,-0.189c0.53,0 0.959,0.21 1.29,0.63c0.331,0.42 0.496,0.972 0.496,1.657c0,0.685 -0.165,1.237 -0.496,1.658c-0.331,0.42 -0.76,0.63 -1.29,0.63c-0.319,0 -0.593,-0.063 -0.823,-0.189c-0.229,-0.126 -0.419,-0.319 -0.57,-0.578Zm2.436,-1.521c0,-0.526 -0.108,-0.939 -0.325,-1.239c-0.216,-0.299 -0.514,-0.449 -0.892,-0.449c-0.379,0 -0.677,0.15 -0.894,0.449c-0.216,0.3 -0.325,0.713 -0.325,1.239c0,0.526 0.109,0.939 0.325,1.239c0.217,0.299 0.515,0.449 0.894,0.449c0.378,0 0.676,-0.15 0.892,-0.449c0.217,-0.3 0.325,-0.713 0.325,-1.239Z" style="fill-rule:nonzero;"/><path id="DejaVuSans-691" serif:id="DejaVuSans-69" d="M636.178,163.845l0.716,0l0,4.357l-0.716,0l0,-4.357Zm0,-1.697l0.716,0l0,0.908l-0.716,0l0,-0.908Z" style="fill-rule:nonzero;"/><path id="DejaVuSans-631" serif:id="DejaVuSans-63" d="M641.527,164.012l0,0.669c-0.202,-0.112 -0.405,-0.196 -0.609,-0.251c-0.203,-0.056 -0.408,-0.084 -0.616,-0.084c-0.464,0 -0.825,0.148 -1.083,0.442c-0.256,0.294 -0.384,0.707 -0.384,1.239c0,0.532 0.128,0.945 0.384,1.24c0.258,0.294 0.619,0.44 1.083,0.44c0.208,0 0.413,-0.027 0.616,-0.083c0.204,-0.056 0.407,-0.139 0.609,-0.251l0,0.662c-0.2,0.093 -0.407,0.162 -0.621,0.209c-0.213,0.047 -0.441,0.071 -0.682,0.071c-0.657,0 -1.178,-0.206 -1.565,-0.619c-0.386,-0.412 -0.579,-0.969 -0.579,-1.669c0,-0.71 0.195,-1.269 0.585,-1.676c0.391,-0.407 0.926,-0.611 1.606,-0.611c0.22,0 0.435,0.023 0.645,0.069c0.21,0.045 0.414,0.112 0.611,0.203Z" style="fill-rule:nonzero;"/><path id="DejaVuSans-32" d="M646.082,167.541l2.742,0l0,0.661l-3.687,0l0,-0.661c0.298,-0.309 0.704,-0.723 1.219,-1.243c0.515,-0.52 0.839,-0.856 0.971,-1.007c0.251,-0.282 0.427,-0.521 0.526,-0.717c0.101,-0.196 0.151,-0.388 0.151,-0.577c0,-0.309 -0.108,-0.56 -0.325,-0.755c-0.217,-0.195 -0.499,-0.292 -0.846,-0.292c-0.247,0 -0.507,0.043 -0.781,0.128c-0.273,0.086 -0.565,0.215 -0.876,0.39l0,-0.795c0.316,-0.126 0.611,-0.222 0.886,-0.287c0.276,-0.065 0.527,-0.097 0.756,-0.097c0.601,0 1.081,0.15 1.439,0.452c0.357,0.3 0.536,0.702 0.536,1.205c0,0.239 -0.045,0.465 -0.134,0.679c-0.089,0.214 -0.252,0.465 -0.488,0.756c-0.065,0.075 -0.271,0.293 -0.619,0.652c-0.347,0.36 -0.837,0.862 -1.47,1.508Z" style="fill-rule:nonzero;"/></g></g><g id="xtick_3"><path id="m51184461f52" serif:id="m51184461f5" d="M698.947,156.571l0,2.789" style="fill-rule:nonzero;stroke:#000;stroke-width:0.64px;stroke-linecap:butt;stroke-linejoin:miter;stroke-miterlimit:4;"/><g id="text_3"><path id="DejaVuSans-542" serif:id="DejaVuSans-54" d="M684.437,162.393l4.913,0l0,0.663l-2.061,0l0,5.146l-0.789,0l0,-5.146l-2.063,0l0,-0.663Z" style="fill-rule:nonzero;"/><path id="DejaVuSans-6f2" serif:id="DejaVuSans-6f" d="M691.745,164.346c-0.384,0 -0.687,0.15 -0.91,0.45c-0.224,0.299 -0.335,0.71 -0.335,1.231c0,0.521 0.111,0.931 0.332,1.231c0.223,0.3 0.527,0.449 0.913,0.449c0.381,0 0.683,-0.15 0.906,-0.45c0.223,-0.301 0.335,-0.711 0.335,-1.23c0,-0.516 -0.112,-0.925 -0.335,-1.227c-0.223,-0.302 -0.525,-0.454 -0.906,-0.454Zm0,-0.606c0.622,0 1.111,0.203 1.466,0.608c0.356,0.404 0.534,0.964 0.534,1.679c0,0.713 -0.178,1.273 -0.534,1.679c-0.355,0.406 -0.844,0.609 -1.466,0.609c-0.625,0 -1.115,-0.203 -1.469,-0.609c-0.354,-0.406 -0.53,-0.966 -0.53,-1.679c0,-0.715 0.176,-1.275 0.53,-1.679c0.354,-0.405 0.844,-0.608 1.469,-0.608Z" style="fill-rule:nonzero;"/><path id="DejaVuSans-702" serif:id="DejaVuSans-70" d="M695.623,167.548l0,2.31l-0.72,0l0,-6.013l0.72,0l0,0.661c0.151,-0.259 0.341,-0.451 0.57,-0.577c0.23,-0.126 0.504,-0.189 0.823,-0.189c0.529,0 0.959,0.21 1.29,0.63c0.331,0.42 0.496,0.972 0.496,1.657c0,0.685 -0.165,1.237 -0.496,1.658c-0.331,0.42 -0.761,0.63 -1.29,0.63c-0.319,0 -0.593,-0.063 -0.823,-0.189c-0.229,-0.126 -0.419,-0.319 -0.57,-0.578Zm2.436,-1.521c0,-0.526 -0.108,-0.939 -0.325,-1.239c-0.216,-0.299 -0.514,-0.449 -0.892,-0.449c-0.38,0 -0.678,0.15 -0.894,0.449c-0.217,0.3 -0.325,0.713 -0.325,1.239c0,0.526 0.108,0.939 0.325,1.239c0.216,0.299 0.514,0.449 0.894,0.449c0.378,0 0.676,-0.15 0.892,-0.449c0.217,-0.3 0.325,-0.713 0.325,-1.239Z" style="fill-rule:nonzero;"/><path id="DejaVuSans-692" serif:id="DejaVuSans-69" d="M699.988,163.845l0.716,0l0,4.357l-0.716,0l0,-4.357Zm0,-1.697l0.716,0l0,0.908l-0.716,0l0,-0.908Z" style="fill-rule:nonzero;"/><path id="DejaVuSans-632" serif:id="DejaVuSans-63" d="M705.337,164.012l0,0.669c-0.203,-0.112 -0.406,-0.196 -0.609,-0.251c-0.203,-0.056 -0.409,-0.084 -0.616,-0.084c-0.465,0 -0.826,0.148 -1.083,0.442c-0.256,0.294 -0.385,0.707 -0.385,1.239c0,0.532 0.129,0.945 0.385,1.24c0.257,0.294 0.618,0.44 1.083,0.44c0.207,0 0.413,-0.027 0.616,-0.083c0.203,-0.056 0.406,-0.139 0.609,-0.251l0,0.662c-0.2,0.093 -0.407,0.162 -0.621,0.209c-0.214,0.047 -0.441,0.071 -0.682,0.071c-0.657,0 -1.178,-0.206 -1.565,-0.619c-0.386,-0.412 -0.579,-0.969 -0.579,-1.669c0,-0.71 0.195,-1.269 0.585,-1.676c0.391,-0.407 0.926,-0.611 1.606,-0.611c0.22,0 0.435,0.023 0.645,0.069c0.21,0.045 0.413,0.112 0.611,0.203Z" style="fill-rule:nonzero;"/><path id="DejaVuSans-33" d="M711.596,165.07c0.376,0.08 0.669,0.248 0.88,0.503c0.212,0.254 0.317,0.567 0.317,0.941c0,0.572 -0.197,1.016 -0.591,1.33c-0.394,0.314 -0.954,0.471 -1.68,0.471c-0.244,0 -0.494,-0.024 -0.752,-0.072c-0.258,-0.048 -0.525,-0.121 -0.799,-0.217l0,-0.758c0.217,0.127 0.455,0.223 0.714,0.288c0.26,0.064 0.531,0.097 0.814,0.097c0.492,0 0.867,-0.097 1.126,-0.292c0.258,-0.194 0.387,-0.476 0.387,-0.847c0,-0.343 -0.12,-0.611 -0.36,-0.803c-0.24,-0.194 -0.574,-0.29 -1.001,-0.29l-0.677,0l0,-0.646l0.708,0c0.386,0 0.682,-0.077 0.886,-0.232c0.205,-0.154 0.308,-0.377 0.308,-0.667c0,-0.298 -0.106,-0.527 -0.317,-0.686c-0.211,-0.16 -0.514,-0.24 -0.908,-0.24c-0.216,0 -0.447,0.023 -0.693,0.071c-0.247,0.046 -0.518,0.118 -0.813,0.216l0,-0.699c0.299,-0.083 0.578,-0.145 0.839,-0.187c0.26,-0.041 0.506,-0.062 0.737,-0.062c0.596,0 1.068,0.136 1.415,0.407c0.348,0.27 0.522,0.636 0.522,1.098c0,0.322 -0.092,0.594 -0.277,0.815c-0.184,0.222 -0.446,0.375 -0.785,0.461Z" style="fill-rule:nonzero;"/></g></g><g id="xtick_4"></g><g id="xtick_41" serif:id="xtick_4"></g></g><g id="ytick_1"><path id="m33739fdd98" d="M533.679,156.571l-2.788,0" style="fill-rule:nonzero;stroke:#000;stroke-width:0.64px;stroke-linecap:butt;stroke-linejoin:miter;stroke-miterlimit:4;"/><g id="text_5"><path id="DejaVuSans-30" d="M517.965,154.308c-0.404,0 -0.708,0.199 -0.912,0.597c-0.204,0.398 -0.305,0.996 -0.305,1.795c0,0.796 0.101,1.393 0.305,1.792c0.204,0.398 0.508,0.597 0.912,0.597c0.408,0 0.713,-0.199 0.916,-0.597c0.204,-0.399 0.306,-0.996 0.306,-1.792c0,-0.799 -0.102,-1.397 -0.306,-1.795c-0.203,-0.398 -0.508,-0.597 -0.916,-0.597Zm0,-0.623c0.651,0 1.149,0.258 1.493,0.773c0.343,0.515 0.515,1.262 0.515,2.242c0,0.978 -0.172,1.724 -0.515,2.24c-0.344,0.514 -0.842,0.771 -1.493,0.771c-0.651,0 -1.148,-0.257 -1.491,-0.771c-0.344,-0.516 -0.516,-1.262 -0.516,-2.24c0,-0.98 0.172,-1.727 0.516,-2.242c0.343,-0.515 0.84,-0.773 1.491,-0.773Z" style="fill-rule:nonzero;"/><rect id="DejaVuSans-2e" x="521.353" y="158.61" width="0.822" height="0.988" style="fill-rule:nonzero;"/><path id="DejaVuSans-301" serif:id="DejaVuSans-30" d="M525.566,154.308c-0.404,0 -0.708,0.199 -0.912,0.597c-0.204,0.398 -0.305,0.996 -0.305,1.795c0,0.796 0.101,1.393 0.305,1.792c0.204,0.398 0.508,0.597 0.912,0.597c0.408,0 0.713,-0.199 0.916,-0.597c0.204,-0.399 0.306,-0.996 0.306,-1.792c0,-0.799 -0.102,-1.397 -0.306,-1.795c-0.203,-0.398 -0.508,-0.597 -0.916,-0.597Zm0,-0.623c0.652,0 1.149,0.258 1.493,0.773c0.343,0.515 0.515,1.262 0.515,2.242c0,0.978 -0.172,1.724 -0.515,2.24c-0.344,0.514 -0.841,0.771 -1.493,0.771c-0.651,0 -1.148,-0.257 -1.491,-0.771c-0.344,-0.516 -0.516,-1.262 -0.516,-2.24c0,-0.98 0.172,-1.727 0.516,-2.242c0.343,-0.515 0.84,-0.773 1.491,-0.773Z" style="fill-rule:nonzero;"/></g></g><g id="ytick_2"><path id="m33739fdd981" serif:id="m33739fdd98" d="M533.98,146.552l-2.788,0" style="fill-rule:nonzero;stroke:#000;stroke-width:0.64px;stroke-linecap:butt;stroke-linejoin:miter;stroke-miterlimit:4;"/><g id="text_6"><path id="DejaVuSans-302" serif:id="DejaVuSans-30" d="M518.266,144.288c-0.404,0 -0.709,0.199 -0.913,0.597c-0.203,0.398 -0.305,0.996 -0.305,1.795c0,0.796 0.102,1.393 0.305,1.792c0.204,0.398 0.509,0.597 0.913,0.597c0.407,0 0.713,-0.199 0.916,-0.597c0.204,-0.399 0.306,-0.996 0.306,-1.792c0,-0.799 -0.102,-1.397 -0.306,-1.795c-0.203,-0.398 -0.509,-0.597 -0.916,-0.597Zm0,-0.622c0.651,0 1.149,0.257 1.492,0.773c0.344,0.514 0.516,1.261 0.516,2.241c0,0.978 -0.172,1.725 -0.516,2.24c-0.343,0.514 -0.841,0.772 -1.492,0.772c-0.651,0 -1.148,-0.258 -1.492,-0.772c-0.343,-0.515 -0.515,-1.262 -0.515,-2.24c0,-0.98 0.172,-1.727 0.515,-2.241c0.344,-0.516 0.841,-0.773 1.492,-0.773Z" style="fill-rule:nonzero;"/><rect id="DejaVuSans-2e1" serif:id="DejaVuSans-2e" x="521.654" y="148.59" width="0.822" height="0.988" style="fill-rule:nonzero;"/><path id="DejaVuSans-311" serif:id="DejaVuSans-31" d="M524.323,148.917l1.284,0l0,-4.431l-1.397,0.28l0,-0.716l1.389,-0.28l0.786,0l0,5.147l1.283,0l0,0.661l-3.345,0l0,-0.661Z" style="fill-rule:nonzero;"/></g></g><g id="ytick_3"><path id="m33739fdd982" serif:id="m33739fdd98" d="M533.98,134.708l-2.788,0" style="fill-rule:nonzero;stroke:#000;stroke-width:0.64px;stroke-linecap:butt;stroke-linejoin:miter;stroke-miterlimit:4;"/><g id="text_7"><path id="DejaVuSans-303" serif:id="DejaVuSans-30" d="M518.266,132.445c-0.404,0 -0.709,0.199 -0.913,0.597c-0.203,0.398 -0.305,0.996 -0.305,1.795c0,0.796 0.102,1.393 0.305,1.791c0.204,0.399 0.509,0.598 0.913,0.598c0.407,0 0.713,-0.199 0.916,-0.598c0.204,-0.398 0.306,-0.995 0.306,-1.791c0,-0.799 -0.102,-1.397 -0.306,-1.795c-0.203,-0.398 -0.509,-0.597 -0.916,-0.597Zm0,-0.623c0.651,0 1.149,0.258 1.492,0.773c0.344,0.515 0.516,1.262 0.516,2.242c0,0.978 -0.172,1.724 -0.516,2.239c-0.343,0.515 -0.841,0.772 -1.492,0.772c-0.651,0 -1.148,-0.257 -1.492,-0.772c-0.343,-0.515 -0.515,-1.261 -0.515,-2.239c0,-0.98 0.172,-1.727 0.515,-2.242c0.344,-0.515 0.841,-0.773 1.492,-0.773Z" style="fill-rule:nonzero;"/><rect id="DejaVuSans-2e2" serif:id="DejaVuSans-2e" x="521.654" y="136.747" width="0.822" height="0.988" style="fill-rule:nonzero;"/><path id="DejaVuSans-321" serif:id="DejaVuSans-32" d="M524.863,137.074l2.743,0l0,0.661l-3.687,0l0,-0.661c0.298,-0.309 0.704,-0.723 1.218,-1.242c0.516,-0.521 0.839,-0.856 0.971,-1.007c0.252,-0.283 0.427,-0.522 0.527,-0.717c0.1,-0.196 0.15,-0.389 0.15,-0.578c0,-0.309 -0.108,-0.56 -0.325,-0.754c-0.216,-0.195 -0.498,-0.293 -0.846,-0.293c-0.246,0 -0.507,0.043 -0.78,0.128c-0.274,0.086 -0.566,0.216 -0.877,0.39l0,-0.794c0.316,-0.127 0.612,-0.223 0.886,-0.288c0.276,-0.064 0.528,-0.097 0.756,-0.097c0.602,0 1.081,0.151 1.439,0.452c0.358,0.3 0.537,0.702 0.537,1.205c0,0.239 -0.045,0.466 -0.135,0.68c-0.089,0.213 -0.251,0.465 -0.488,0.755c-0.065,0.076 -0.271,0.293 -0.619,0.652c-0.346,0.36 -0.836,0.862 -1.47,1.508Z" style="fill-rule:nonzero;"/></g></g><g id="ytick_4"><path id="m33739fdd983" serif:id="m33739fdd98" d="M533.98,122.865l-2.788,0" style="fill-rule:nonzero;stroke:#000;stroke-width:0.64px;stroke-linecap:butt;stroke-linejoin:miter;stroke-miterlimit:4;"/><g id="text_8"><path id="DejaVuSans-304" serif:id="DejaVuSans-30" d="M518.266,120.601c-0.404,0 -0.709,0.199 -0.913,0.598c-0.203,0.397 -0.305,0.995 -0.305,1.795c0,0.795 0.102,1.393 0.305,1.791c0.204,0.398 0.509,0.597 0.913,0.597c0.407,0 0.713,-0.199 0.916,-0.597c0.204,-0.398 0.306,-0.996 0.306,-1.791c0,-0.8 -0.102,-1.398 -0.306,-1.795c-0.203,-0.399 -0.509,-0.598 -0.916,-0.598Zm0,-0.622c0.651,0 1.149,0.257 1.492,0.773c0.344,0.514 0.516,1.262 0.516,2.242c0,0.977 -0.172,1.724 -0.516,2.239c-0.343,0.515 -0.841,0.772 -1.492,0.772c-0.651,0 -1.148,-0.257 -1.492,-0.772c-0.343,-0.515 -0.515,-1.262 -0.515,-2.239c0,-0.98 0.172,-1.728 0.515,-2.242c0.344,-0.516 0.841,-0.773 1.492,-0.773Z" style="fill-rule:nonzero;"/><rect id="DejaVuSans-2e3" serif:id="DejaVuSans-2e" x="521.654" y="124.903" width="0.822" height="0.988" style="fill-rule:nonzero;"/><path id="DejaVuSans-331" serif:id="DejaVuSans-33" d="M526.568,122.76c0.375,0.08 0.669,0.248 0.88,0.502c0.211,0.254 0.317,0.568 0.317,0.942c0,0.572 -0.197,1.016 -0.591,1.33c-0.394,0.314 -0.955,0.471 -1.681,0.471c-0.243,0 -0.494,-0.024 -0.752,-0.072c-0.258,-0.049 -0.524,-0.121 -0.799,-0.217l0,-0.758c0.218,0.127 0.456,0.223 0.715,0.287c0.259,0.065 0.531,0.098 0.814,0.098c0.492,0 0.867,-0.098 1.125,-0.292c0.258,-0.194 0.387,-0.477 0.387,-0.847c0,-0.343 -0.12,-0.611 -0.359,-0.803c-0.24,-0.194 -0.574,-0.29 -1.001,-0.29l-0.677,0l0,-0.646l0.708,0c0.386,0 0.681,-0.078 0.886,-0.232c0.205,-0.154 0.308,-0.377 0.308,-0.667c0,-0.298 -0.106,-0.527 -0.318,-0.686c-0.211,-0.16 -0.513,-0.24 -0.907,-0.24c-0.216,0 -0.447,0.023 -0.694,0.071c-0.246,0.046 -0.517,0.118 -0.812,0.216l0,-0.699c0.298,-0.083 0.578,-0.146 0.838,-0.187c0.261,-0.042 0.507,-0.062 0.737,-0.062c0.597,0 1.069,0.135 1.416,0.407c0.347,0.27 0.521,0.636 0.521,1.098c0,0.322 -0.092,0.593 -0.276,0.815c-0.184,0.222 -0.446,0.375 -0.785,0.461Z" style="fill-rule:nonzero;"/></g></g><g id="ytick_5"><path id="m33739fdd984" serif:id="m33739fdd98" d="M533.98,111.021l-2.788,0" style="fill-rule:nonzero;stroke:#000;stroke-width:0.64px;stroke-linecap:butt;stroke-linejoin:miter;stroke-miterlimit:4;"/><g id="text_9"><path id="DejaVuSans-305" serif:id="DejaVuSans-30" d="M518.266,108.758c-0.404,0 -0.709,0.199 -0.913,0.597c-0.203,0.398 -0.305,0.996 -0.305,1.795c0,0.796 0.102,1.393 0.305,1.791c0.204,0.399 0.509,0.598 0.913,0.598c0.407,0 0.713,-0.199 0.916,-0.598c0.204,-0.398 0.306,-0.995 0.306,-1.791c0,-0.799 -0.102,-1.397 -0.306,-1.795c-0.203,-0.398 -0.509,-0.597 -0.916,-0.597Zm0,-0.623c0.651,0 1.149,0.258 1.492,0.773c0.344,0.515 0.516,1.262 0.516,2.242c0,0.978 -0.172,1.724 -0.516,2.24c-0.343,0.514 -0.841,0.771 -1.492,0.771c-0.651,0 -1.148,-0.257 -1.492,-0.771c-0.343,-0.516 -0.515,-1.262 -0.515,-2.24c0,-0.98 0.172,-1.727 0.515,-2.242c0.344,-0.515 0.841,-0.773 1.492,-0.773Z" style="fill-rule:nonzero;"/><rect id="DejaVuSans-2e4" serif:id="DejaVuSans-2e" x="521.654" y="113.06" width="0.822" height="0.988" style="fill-rule:nonzero;"/><path id="DejaVuSans-34" d="M526.346,108.924l-1.984,3.101l1.984,0l0,-3.101Zm-0.207,-0.684l0.989,0l0,3.785l0.829,0l0,0.654l-0.829,0l0,1.369l-0.782,0l0,-1.369l-2.622,0l0,-0.758l2.415,-3.681Z" style="fill-rule:nonzero;"/></g></g><g id="ytick_6"><path id="m33739fdd985" serif:id="m33739fdd98" d="M533.98,99.178l-2.788,0" style="fill-rule:nonzero;stroke:#000;stroke-width:0.64px;stroke-linecap:butt;stroke-linejoin:miter;stroke-miterlimit:4;"/><g id="text_10"><path id="DejaVuSans-306" serif:id="DejaVuSans-30" d="M518.266,96.914c-0.404,0 -0.709,0.199 -0.913,0.598c-0.203,0.397 -0.305,0.996 -0.305,1.795c0,0.796 0.102,1.393 0.305,1.791c0.204,0.398 0.509,0.597 0.913,0.597c0.407,0 0.713,-0.199 0.916,-0.597c0.204,-0.398 0.306,-0.995 0.306,-1.791c0,-0.799 -0.102,-1.398 -0.306,-1.795c-0.203,-0.399 -0.509,-0.598 -0.916,-0.598Zm0,-0.622c0.651,0 1.149,0.258 1.492,0.773c0.344,0.514 0.516,1.262 0.516,2.242c0,0.977 -0.172,1.724 -0.516,2.239c-0.343,0.515 -0.841,0.772 -1.492,0.772c-0.651,0 -1.148,-0.257 -1.492,-0.772c-0.343,-0.515 -0.515,-1.262 -0.515,-2.239c0,-0.98 0.172,-1.728 0.515,-2.242c0.344,-0.515 0.841,-0.773 1.492,-0.773Z" style="fill-rule:nonzero;"/><rect id="DejaVuSans-2e5" serif:id="DejaVuSans-2e" x="521.654" y="101.216" width="0.822" height="0.988" style="fill-rule:nonzero;"/><path id="DejaVuSans-35" d="M524.195,96.396l3.085,0l0,0.663l-2.366,0l0,1.422c0.114,-0.039 0.228,-0.068 0.341,-0.087c0.115,-0.019 0.23,-0.028 0.344,-0.028c0.648,0 1.161,0.177 1.54,0.532c0.379,0.356 0.569,0.837 0.569,1.443c0,0.625 -0.195,1.111 -0.584,1.458c-0.389,0.346 -0.938,0.519 -1.646,0.519c-0.244,0 -0.492,-0.021 -0.745,-0.062c-0.253,-0.042 -0.514,-0.104 -0.783,-0.187l0,-0.791c0.233,0.127 0.474,0.222 0.723,0.284c0.249,0.063 0.512,0.094 0.789,0.094c0.449,0 0.804,-0.118 1.066,-0.354c0.262,-0.236 0.393,-0.556 0.393,-0.961c0,-0.404 -0.131,-0.724 -0.393,-0.96c-0.262,-0.236 -0.617,-0.354 -1.066,-0.354c-0.21,0 -0.419,0.023 -0.628,0.069c-0.209,0.047 -0.422,0.119 -0.639,0.218l0,-2.918Z" style="fill-rule:nonzero;"/></g></g><g id="ytick_7"><path id="m33739fdd986" serif:id="m33739fdd98" d="M533.98,87.334l-2.788,0" style="fill-rule:nonzero;stroke:#000;stroke-width:0.64px;stroke-linecap:butt;stroke-linejoin:miter;stroke-miterlimit:4;"/><g id="text_11"><path id="DejaVuSans-307" serif:id="DejaVuSans-30" d="M518.266,85.071c-0.404,0 -0.709,0.199 -0.913,0.597c-0.203,0.398 -0.305,0.996 -0.305,1.795c0,0.796 0.102,1.393 0.305,1.792c0.204,0.398 0.509,0.597 0.913,0.597c0.407,0 0.713,-0.199 0.916,-0.597c0.204,-0.399 0.306,-0.996 0.306,-1.792c0,-0.799 -0.102,-1.397 -0.306,-1.795c-0.203,-0.398 -0.509,-0.597 -0.916,-0.597Zm0,-0.623c0.651,0 1.149,0.258 1.492,0.773c0.344,0.515 0.516,1.262 0.516,2.242c0,0.978 -0.172,1.724 -0.516,2.24c-0.343,0.514 -0.841,0.771 -1.492,0.771c-0.651,0 -1.148,-0.257 -1.492,-0.771c-0.343,-0.516 -0.515,-1.262 -0.515,-2.24c0,-0.98 0.172,-1.727 0.515,-2.242c0.344,-0.515 0.841,-0.773 1.492,-0.773Z" style="fill-rule:nonzero;"/><rect id="DejaVuSans-2e6" serif:id="DejaVuSans-2e" x="521.654" y="89.373" width="0.822" height="0.988" style="fill-rule:nonzero;"/><path id="DejaVuSans-36" d="M525.965,87.145c-0.353,0 -0.632,0.12 -0.839,0.362c-0.206,0.241 -0.309,0.571 -0.309,0.991c0,0.417 0.103,0.747 0.309,0.991c0.207,0.242 0.486,0.363 0.839,0.363c0.353,0 0.632,-0.121 0.838,-0.363c0.206,-0.244 0.308,-0.574 0.308,-0.991c0,-0.42 -0.102,-0.75 -0.308,-0.991c-0.206,-0.242 -0.485,-0.362 -0.838,-0.362Zm1.56,-2.464l0,0.716c-0.198,-0.093 -0.397,-0.164 -0.598,-0.213c-0.201,-0.05 -0.4,-0.075 -0.597,-0.075c-0.519,0 -0.915,0.175 -1.189,0.526c-0.273,0.35 -0.429,0.879 -0.468,1.587c0.153,-0.226 0.344,-0.399 0.575,-0.519c0.232,-0.121 0.486,-0.181 0.763,-0.181c0.583,0 1.044,0.177 1.383,0.532c0.339,0.353 0.508,0.835 0.508,1.444c0,0.596 -0.176,1.075 -0.529,1.436c-0.353,0.36 -0.822,0.54 -1.408,0.54c-0.672,0 -1.186,-0.257 -1.541,-0.771c-0.355,-0.516 -0.533,-1.262 -0.533,-2.24c0,-0.918 0.218,-1.649 0.654,-2.196c0.435,-0.546 1.02,-0.819 1.754,-0.819c0.197,0 0.396,0.02 0.597,0.059c0.201,0.039 0.41,0.097 0.629,0.174Z" style="fill-rule:nonzero;"/></g></g><g id="ytick_8"><path id="m33739fdd987" serif:id="m33739fdd98" d="M533.98,75.491l-2.788,0" style="fill-rule:nonzero;stroke:#000;stroke-width:0.64px;stroke-linecap:butt;stroke-linejoin:miter;stroke-miterlimit:4;"/><g id="text_12"><path id="DejaVuSans-308" serif:id="DejaVuSans-30" d="M518.266,73.227c-0.404,0 -0.709,0.2 -0.913,0.598c-0.203,0.397 -0.305,0.996 -0.305,1.795c0,0.796 0.102,1.393 0.305,1.791c0.204,0.398 0.509,0.598 0.913,0.598c0.407,0 0.713,-0.2 0.916,-0.598c0.204,-0.398 0.306,-0.995 0.306,-1.791c0,-0.799 -0.102,-1.398 -0.306,-1.795c-0.203,-0.398 -0.509,-0.598 -0.916,-0.598Zm0,-0.622c0.651,0 1.149,0.258 1.492,0.773c0.344,0.514 0.516,1.262 0.516,2.242c0,0.977 -0.172,1.724 -0.516,2.239c-0.343,0.515 -0.841,0.772 -1.492,0.772c-0.651,0 -1.148,-0.257 -1.492,-0.772c-0.343,-0.515 -0.515,-1.262 -0.515,-2.239c0,-0.98 0.172,-1.728 0.515,-2.242c0.344,-0.515 0.841,-0.773 1.492,-0.773Z" style="fill-rule:nonzero;"/><rect id="DejaVuSans-2e7" serif:id="DejaVuSans-2e" x="521.654" y="77.529" width="0.822" height="0.988" style="fill-rule:nonzero;"/><path id="DejaVuSans-37" d="M523.988,72.71l3.735,0l0,0.334l-2.109,5.474l-0.82,0l1.984,-5.146l-2.79,0l0,-0.662Z" style="fill-rule:nonzero;"/></g></g><g id="text_13"><path id="DejaVuSans-50" d="M504.981,135.155l2.182,0l0,-0.988c0,-0.366 -0.095,-0.649 -0.284,-0.848c-0.189,-0.2 -0.459,-0.3 -0.809,-0.3c-0.348,0 -0.616,0.1 -0.805,0.3c-0.19,0.199 -0.284,0.482 -0.284,0.848l0,0.988Zm-0.646,0.786l0,-1.774c0,-0.652 0.147,-1.144 0.442,-1.477c0.294,-0.333 0.725,-0.5 1.293,-0.5c0.573,0 1.007,0.167 1.3,0.5c0.293,0.333 0.439,0.825 0.439,1.477l0,0.988l2.334,0l0,0.786l-5.808,0Z" style="fill-rule:nonzero;"/><path id="DejaVuSans-72" d="M506.455,128.644c-0.047,0.081 -0.081,0.168 -0.102,0.263c-0.023,0.095 -0.034,0.199 -0.034,0.312c0,0.405 0.132,0.716 0.395,0.933c0.263,0.216 0.641,0.325 1.134,0.325l2.295,0l0,0.719l-4.357,0l0,-0.719l0.677,0c-0.264,-0.151 -0.461,-0.347 -0.588,-0.588c-0.129,-0.241 -0.193,-0.535 -0.193,-0.88c0,-0.049 0.003,-0.103 0.01,-0.163c0.005,-0.06 0.015,-0.126 0.028,-0.198l0.735,-0.004Z" style="fill-rule:nonzero;"/><path id="DejaVuSans-6f3" serif:id="DejaVuSans-6f" d="M506.288,126.208c0,0.383 0.15,0.687 0.449,0.91c0.3,0.223 0.71,0.335 1.231,0.335c0.522,0 0.932,-0.111 1.231,-0.333c0.3,-0.222 0.45,-0.526 0.45,-0.912c0,-0.382 -0.15,-0.684 -0.451,-0.906c-0.301,-0.223 -0.711,-0.335 -1.23,-0.335c-0.516,0 -0.925,0.112 -1.227,0.335c-0.302,0.222 -0.453,0.524 -0.453,0.906Zm-0.606,0c0,-0.622 0.202,-1.111 0.607,-1.466c0.404,-0.356 0.964,-0.534 1.679,-0.534c0.713,0 1.273,0.178 1.68,0.534c0.405,0.355 0.608,0.844 0.608,1.466c0,0.625 -0.203,1.115 -0.608,1.469c-0.407,0.353 -0.967,0.53 -1.68,0.53c-0.715,0 -1.275,-0.177 -1.679,-0.53c-0.405,-0.354 -0.607,-0.844 -0.607,-1.469Z" style="fill-rule:nonzero;"/><path id="DejaVuSans-62" d="M507.968,119.894c-0.526,0 -0.939,0.108 -1.238,0.325c-0.3,0.216 -0.45,0.514 -0.45,0.892c0,0.379 0.15,0.677 0.45,0.894c0.299,0.216 0.712,0.325 1.238,0.325c0.526,0 0.939,-0.109 1.239,-0.325c0.3,-0.217 0.449,-0.515 0.449,-0.894c0,-0.378 -0.149,-0.676 -0.449,-0.892c-0.3,-0.217 -0.713,-0.325 -1.239,-0.325Zm-1.521,2.436c-0.259,-0.151 -0.451,-0.341 -0.576,-0.57c-0.126,-0.23 -0.189,-0.505 -0.189,-0.823c0,-0.53 0.21,-0.96 0.63,-1.29c0.419,-0.331 0.972,-0.496 1.656,-0.496c0.685,0 1.238,0.165 1.658,0.496c0.42,0.33 0.63,0.76 0.63,1.29c0,0.318 -0.063,0.593 -0.189,0.823c-0.126,0.229 -0.319,0.419 -0.578,0.57l0.654,0l0,0.719l-6.053,0l0,-0.719l2.357,0Z" style="fill-rule:nonzero;"/><path id="DejaVuSans-61" d="M507.953,115.984c0,0.579 0.066,0.98 0.198,1.203c0.132,0.223 0.358,0.335 0.678,0.335c0.253,0 0.455,-0.084 0.604,-0.252c0.149,-0.167 0.223,-0.395 0.223,-0.682c0,-0.397 -0.14,-0.716 -0.422,-0.956c-0.281,-0.24 -0.655,-0.36 -1.121,-0.36l-0.16,0l0,0.712Zm-0.296,-1.427l2.486,0l0,0.715l-0.661,0c0.264,0.164 0.459,0.368 0.585,0.612c0.126,0.244 0.189,0.542 0.189,0.895c0,0.445 -0.125,0.8 -0.376,1.064c-0.25,0.263 -0.586,0.394 -1.005,0.394c-0.49,0 -0.859,-0.163 -1.108,-0.491c-0.249,-0.329 -0.374,-0.818 -0.374,-1.469l0,-1.005l-0.071,0c-0.329,0 -0.584,0.109 -0.764,0.325c-0.18,0.217 -0.27,0.521 -0.27,0.913c0,0.249 0.03,0.491 0.09,0.728c0.059,0.236 0.149,0.462 0.268,0.68l-0.662,0c-0.101,-0.262 -0.177,-0.516 -0.226,-0.762c-0.051,-0.247 -0.076,-0.487 -0.076,-0.72c0,-0.63 0.163,-1.101 0.49,-1.413c0.326,-0.311 0.821,-0.466 1.485,-0.466Z" style="fill-rule:nonzero;"/><path id="DejaVuSans-621" serif:id="DejaVuSans-62" d="M507.968,109.955c-0.526,0 -0.939,0.108 -1.238,0.325c-0.3,0.216 -0.45,0.514 -0.45,0.892c0,0.379 0.15,0.677 0.45,0.894c0.299,0.216 0.712,0.325 1.238,0.325c0.526,0 0.939,-0.109 1.239,-0.325c0.3,-0.217 0.449,-0.515 0.449,-0.894c0,-0.378 -0.149,-0.676 -0.449,-0.892c-0.3,-0.217 -0.713,-0.325 -1.239,-0.325Zm-1.521,2.436c-0.259,-0.151 -0.451,-0.341 -0.576,-0.57c-0.126,-0.23 -0.189,-0.504 -0.189,-0.823c0,-0.53 0.21,-0.959 0.63,-1.29c0.419,-0.331 0.972,-0.496 1.656,-0.496c0.685,0 1.238,0.165 1.658,0.496c0.42,0.331 0.63,0.76 0.63,1.29c0,0.319 -0.063,0.593 -0.189,0.823c-0.126,0.229 -0.319,0.419 -0.578,0.57l0.654,0l0,0.719l-6.053,0l0,-0.719l2.357,0Z" style="fill-rule:nonzero;"/><path id="DejaVuSans-693" serif:id="DejaVuSans-69" d="M505.786,108.026l0,-0.716l4.357,0l0,0.716l-4.357,0Zm-1.696,0l0,-0.716l0.907,0l0,0.716l-0.907,0Z" style="fill-rule:nonzero;"/><path id="DejaVuSans-6c" d="M504.09,105.813l0,-0.716l6.053,0l0,0.716l-6.053,0Z" style="fill-rule:nonzero;"/><path id="DejaVuSans-694" serif:id="DejaVuSans-69" d="M505.786,103.599l0,-0.716l4.357,0l0,0.716l-4.357,0Zm-1.696,0l0,-0.716l0.907,0l0,0.716l-0.907,0Z" style="fill-rule:nonzero;"/><path id="DejaVuSans-74" d="M504.549,100.677l1.237,0l0,-1.473l0.557,0l0,1.473l2.365,0c0.355,0 0.583,-0.048 0.684,-0.145c0.102,-0.097 0.152,-0.295 0.152,-0.594l0,-0.734l0.599,0l0,0.734c0,0.553 -0.103,0.934 -0.309,1.144c-0.206,0.21 -0.582,0.315 -1.126,0.315l-2.365,0l0,0.525l-0.557,0l0,-0.525l-1.237,0l0,-0.72Z" style="fill-rule:nonzero;"/><path id="DejaVuSans-79" d="M510.548,96.45c0.518,0.201 0.856,0.398 1.014,0.591c0.159,0.192 0.238,0.448 0.238,0.769l0,0.573l-0.599,0l0,-0.421c0,-0.197 -0.047,-0.349 -0.141,-0.458c-0.093,-0.11 -0.313,-0.23 -0.661,-0.362l-0.326,-0.128l-4.287,1.761l0,-0.758l3.407,-1.362l-3.407,-1.362l0,-0.758l4.762,1.915Z" style="fill-rule:nonzero;"/></g><path id="patch_71" serif:id="patch_7" d="M533.679,156.571l0,-88.949" style="fill:none;stroke:#000;stroke-width:0.51px;stroke-linejoin:miter;stroke-miterlimit:4;"/><path id="patch_91" serif:id="patch_9" d="M533.679,156.571l204.549,0" style="fill:none;stroke:#000;stroke-width:0.57px;stroke-linejoin:miter;stroke-miterlimit:4;"/></g><rect x="474.839" y="185.706" width="292.64" height="54.944" style="fill:#00678f;"/><text x="523.221px" y="218.336px" style="font-family:'Univers-Light', 'Univers 45 Light';font-size:25px;fill:#fff;">Nearest-Neighbor</text><g><circle cx="606.592" cy="272.241" r="27.414" style="fill:none;stroke:#f00;stroke-width:1px;stroke-linecap:round;"/><text x="490.12px" y="289.283px" style="font-family:'ArialMT', 'Arial', sans-serif;font-size:11.964px;">x</text><text x="619.472px" y="359.104px" style="font-family:'ArialMT', 'Arial', sans-serif;font-size:11.964px;">y</text><g><path d="M527.484,318.642l-9.642,-9.642l-0.749,0.749l9.642,9.642l0.749,-0.749Z" style="fill:#00678f;"/><path d="M517.842,319.391l9.642,-9.642l-0.749,-0.749l-9.642,9.642l0.749,0.749Z" style="fill:#00678f;"/></g><g><path d="M549.765,338.933l-9.642,-9.641l-0.749,0.748l9.642,9.642l0.749,-0.749Z" style="fill:#00678f;"/><path d="M540.123,339.682l9.642,-9.642l-0.749,-0.748l-9.642,9.641l0.749,0.749Z" style="fill:#00678f;"/></g><g><path d="M582.804,304.549l-9.641,-9.642l-0.749,0.749l9.642,9.642l0.748,-0.749Z" style="fill:#00678f;"/><path d="M573.163,305.298l9.641,-9.642l-0.748,-0.749l-9.642,9.642l0.749,0.749Z" style="fill:#00678f;"/></g><g><path d="M594.779,315.719l-9.642,-9.642l-0.749,0.749l9.642,9.642l0.749,-0.749Z" style="fill:#00678f;"/><path d="M585.137,316.468l9.642,-9.642l-0.749,-0.749l-9.642,9.642l0.749,0.749Z" style="fill:#00678f;"/></g><g><path d="M544.57,276.023l-9.642,-9.641l-0.749,0.749l9.642,9.641l0.749,-0.749Z" style="fill:#00678f;"/><path d="M534.928,276.772l9.642,-9.641l-0.749,-0.749l-9.642,9.641l0.749,0.749Z" style="fill:#00678f;"/></g><g><path d="M554.96,303.056l-9.641,-9.642l-0.749,0.749l9.641,9.642l0.749,-0.749Z" style="fill:#00678f;"/><path d="M545.319,303.805l9.641,-9.642l-0.749,-0.749l-9.641,9.642l0.749,0.749Z" style="fill:#00678f;"/></g><g><path d="M682.826,301.018l-9.642,-9.642l-0.749,0.749l9.642,9.642l0.749,-0.749Z" style="fill:#00678f;"/><path d="M673.184,301.767l9.642,-9.642l-0.749,-0.749l-9.642,9.642l0.749,0.749Z" style="fill:#00678f;"/></g><g><path d="M693.217,320.914l-9.642,-9.642l-0.749,0.749l9.642,9.642l0.749,-0.749Z" style="fill:#00678f;"/><path d="M683.575,321.663l9.642,-9.642l-0.749,-0.749l-9.642,9.642l0.749,0.749Z" style="fill:#00678f;"/></g><g><path d="M653.398,308.251l-9.642,-9.642l-0.749,0.749l9.642,9.642l0.749,-0.749Z" style="fill:#00678f;"/><path d="M643.756,309l9.642,-9.642l-0.749,-0.749l-9.642,9.642l0.749,0.749Z" style="fill:#00678f;"/></g><g><path d="M523.13,270.828l-9.641,-9.642l-0.749,0.749l9.642,9.642l0.748,-0.749Z" style="fill:#00678f;"/><path d="M513.489,271.577l9.641,-9.642l-0.748,-0.749l-9.642,9.642l0.749,0.749Z" style="fill:#00678f;"/></g><g><path d="M632.898,338.112l-9.642,-9.642l-0.749,0.749l9.642,9.642l0.749,-0.749Z" style="fill:#00678f;"/><path d="M623.256,338.861l9.642,-9.642l-0.749,-0.749l-9.642,9.642l0.749,0.749Z" style="fill:#00678f;"/></g><g><path d="M622.507,266.744l-9.642,-9.642l-0.749,0.749l9.642,9.642l0.749,-0.749Z" style="fill:#00678f;"/><path d="M612.865,267.493l9.642,-9.642l-0.749,-0.749l-9.642,9.642l0.749,0.749Z" style="fill:#00678f;"/></g><g><path d="M679.043,263.552l-9.642,-9.642l-0.749,0.749l9.642,9.641l0.749,-0.748Z" style="fill:#00678f;"/><path d="M669.401,264.3l9.642,-9.641l-0.749,-0.749l-9.642,9.642l0.749,0.748Z" style="fill:#00678f;"/></g><g><path d="M599.828,282.33l-9.642,-9.642l-0.749,0.749l9.642,9.642l0.749,-0.749Z" style="fill:#00678f;"/><path d="M590.186,283.079l9.642,-9.642l-0.749,-0.749l-9.642,9.642l0.749,0.749Z" style="fill:#00678f;"/></g><g><path d="M528.326,299.354l-9.642,-9.642l-0.749,0.749l9.642,9.641l0.749,-0.748Z" style="fill:#00678f;"/><path d="M518.684,300.102l9.642,-9.641l-0.749,-0.749l-9.642,9.642l0.749,0.748Z" style="fill:#00678f;"/></g><g><path d="M671.086,285.432l-9.642,-9.642l-0.749,0.749l9.642,9.642l0.749,-0.749Z" style="fill:#00678f;"/><path d="M661.444,286.181l9.642,-9.642l-0.749,-0.749l-9.642,9.642l0.749,0.749Z" style="fill:#00678f;"/></g><g><path d="M622.507,295.822l-9.642,-9.641l-0.749,0.748l9.642,9.642l0.749,-0.749Z" style="fill:#00678f;"/><path d="M612.865,296.571l9.642,-9.642l-0.749,-0.748l-9.642,9.641l0.749,0.749Z" style="fill:#00678f;"/></g><g><path d="M718.463,315.719l-9.641,-9.642l-0.749,0.749l9.641,9.642l0.749,-0.749Z" style="fill:#00678f;"/><path d="M708.822,316.468l9.641,-9.642l-0.749,-0.749l-9.641,9.642l0.749,0.749Z" style="fill:#00678f;"/></g><g><path d="M611.787,276.687l-9.641,-9.642l-0.749,0.749l9.641,9.642l0.749,-0.749Z" style="fill:#7cb700;"/><path d="M602.146,277.436l9.641,-9.642l-0.749,-0.749l-9.641,9.642l0.749,0.749Z" style="fill:#7cb700;"/></g><g><path id="patch_72" serif:id="patch_7" d="M498.524,347.796l0,-102.522" style="fill:none;stroke:#000;stroke-width:0.63px;stroke-linejoin:miter;stroke-miterlimit:4;"/><path id="patch_92" serif:id="patch_9" d="M498.524,347.796l252.082,0" style="fill:none;stroke:#000;stroke-width:0.64px;stroke-linejoin:miter;stroke-miterlimit:4;"/></g><text x="490.12px" y="289.283px" style="font-family:'ArialMT', 'Arial', sans-serif;font-size:11.964px;">x</text><text x="619.472px" y="359.104px" style="font-family:'ArialMT', 'Arial', sans-serif;font-size:11.964px;">y</text><g><path d="M527.484,318.642l-9.642,-9.642l-0.749,0.749l9.642,9.642l0.749,-0.749Z" style="fill:#00678f;"/><path d="M517.842,319.391l9.642,-9.642l-0.749,-0.749l-9.642,9.642l0.749,0.749Z" style="fill:#00678f;"/></g><g><path d="M549.765,338.933l-9.642,-9.641l-0.749,0.748l9.642,9.642l0.749,-0.749Z" style="fill:#00678f;"/><path d="M540.123,339.682l9.642,-9.642l-0.749,-0.748l-9.642,9.641l0.749,0.749Z" style="fill:#00678f;"/></g><g><path d="M570.109,324.381l-9.642,-9.642l-0.749,0.749l9.642,9.642l0.749,-0.749Z" style="fill:#00678f;"/><path d="M560.467,325.13l9.642,-9.642l-0.749,-0.749l-9.642,9.642l0.749,0.749Z" style="fill:#00678f;"/></g><g><path d="M606.592,334.772l-9.642,-9.642l-0.749,0.749l9.642,9.641l0.749,-0.748Z" style="fill:#00678f;"/><path d="M596.95,335.52l9.642,-9.641l-0.749,-0.749l-9.642,9.642l0.749,0.748Z" style="fill:#00678f;"/></g><g><path d="M554.96,303.056l-9.641,-9.642l-0.749,0.749l9.641,9.642l0.749,-0.749Z" style="fill:#00678f;"/><path d="M545.319,303.805l9.641,-9.642l-0.749,-0.749l-9.641,9.642l0.749,0.749Z" style="fill:#00678f;"/></g><g><path d="M682.826,301.018l-9.642,-9.642l-0.749,0.749l9.642,9.642l0.749,-0.749Z" style="fill:#00678f;"/><path d="M673.184,301.767l9.642,-9.642l-0.749,-0.749l-9.642,9.642l0.749,0.749Z" style="fill:#00678f;"/></g><g><path d="M693.217,320.914l-9.642,-9.642l-0.749,0.749l9.642,9.642l0.749,-0.749Z" style="fill:#00678f;"/><path d="M683.575,321.663l9.642,-9.642l-0.749,-0.749l-9.642,9.642l0.749,0.749Z" style="fill:#00678f;"/></g><g><path d="M653.398,308.251l-9.642,-9.642l-0.749,0.749l9.642,9.642l0.749,-0.749Z" style="fill:#00678f;"/><path d="M643.756,309l9.642,-9.642l-0.749,-0.749l-9.642,9.642l0.749,0.749Z" style="fill:#00678f;"/></g><g><path d="M632.898,338.112l-9.642,-9.642l-0.749,0.749l9.642,9.642l0.749,-0.749Z" style="fill:#00678f;"/><path d="M623.256,338.861l9.642,-9.642l-0.749,-0.749l-9.642,9.642l0.749,0.749Z" style="fill:#00678f;"/></g><g><path d="M679.043,263.552l-9.642,-9.642l-0.749,0.749l9.642,9.641l0.749,-0.748Z" style="fill:#00678f;"/><path d="M669.401,264.3l9.642,-9.641l-0.749,-0.749l-9.642,9.642l0.749,0.748Z" style="fill:#00678f;"/></g><g><path d="M671.086,285.432l-9.642,-9.642l-0.749,0.749l9.642,9.642l0.749,-0.749Z" style="fill:#00678f;"/><path d="M661.444,286.181l9.642,-9.642l-0.749,-0.749l-9.642,9.642l0.749,0.749Z" style="fill:#00678f;"/></g><g><path d="M622.507,295.822l-9.642,-9.641l-0.749,0.748l9.642,9.642l0.749,-0.749Z" style="fill:#00678f;"/><path d="M612.865,296.571l9.642,-9.642l-0.749,-0.748l-9.642,9.641l0.749,0.749Z" style="fill:#00678f;"/></g><g><path d="M665.436,329.576l-9.641,-9.642l-0.749,0.749l9.642,9.642l0.748,-0.749Z" style="fill:#00678f;"/><path d="M655.795,330.325l9.641,-9.642l-0.748,-0.749l-9.642,9.642l0.749,0.749Z" style="fill:#00678f;"/></g><g><path d="M718.463,315.719l-9.641,-9.642l-0.749,0.749l9.641,9.642l0.749,-0.749Z" style="fill:#00678f;"/><path d="M708.822,316.468l9.641,-9.642l-0.749,-0.749l-9.641,9.642l0.749,0.749Z" style="fill:#00678f;"/></g></g><rect x="474.839" y="185.706" width="292.64" height="179.756" style="fill:none;stroke:#00678f;stroke-width:4.17px;stroke-linecap:round;"/><rect x="474.839" y="185.706" width="292.64" height="54.944" style="fill:#00678f;"/><text x="522.501px" y="218.194px" style="font-family:'ArialMT', 'Arial', sans-serif;font-size:25px;fill:#fff;">Nearest-Neighbor</text><rect x="474.087" y="377.469" width="292.64" height="54.944" style="fill:#00678f;"/><text x="522.47px" y="410.1px" style="font-family:'Univers-Light', 'Univers 45 Light';font-size:25px;fill:#fff;">Nearest-Neighbor</text><rect x="474.087" y="377.469" width="292.64" height="179.756" style="fill:none;stroke:#00678f;stroke-width:4.17px;stroke-linecap:round;"/><rect x="474.087" y="377.469" width="292.64" height="54.944" style="fill:#00678f;"/><text x="488.876px" y="409.958px" style="font-family:'ArialMT', 'Arial', sans-serif;font-size:25px;fill:#fff;">T<tspan x="501.376px 515.28px " y="409.958px 409.958px ">op</tspan>ic-Nearest-Neighbor</text><rect x="473.336" y="569.145" width="292.64" height="179.886" style="fill:none;stroke:#00678f;stroke-width:4.17px;stroke-linecap:round;"/><rect x="473.336" y="569.145" width="292.64" height="54.944" style="fill:#00678f;"/><text x="592.568px" y="601.634px" style="font-family:'ArialMT', 'Arial', sans-serif;font-size:25px;fill:#fff;">SVM</text><g><g><path id="patch_73" serif:id="patch_7" d="M493.957,733.824l0,-105.849" style="fill:none;stroke:#000;stroke-width:0.63px;stroke-linejoin:miter;stroke-miterlimit:4;"/><path id="patch_93" serif:id="patch_9" d="M493.957,733.824l260.475,0" style="fill:none;stroke:#000;stroke-width:0.66px;stroke-linejoin:miter;stroke-miterlimit:4;"/></g><circle cx="520.293" cy="693.813" r="8.424" style="fill:none;stroke:#00678f;stroke-width:1px;stroke-linecap:round;"/><circle cx="556.287" cy="702.238" r="8.424" style="fill:none;stroke:#00678f;stroke-width:1px;stroke-linecap:round;"/><circle cx="528.717" cy="649.517" r="8.424" style="fill:none;stroke:#00678f;stroke-width:1px;stroke-linecap:round;"/><circle cx="556.287" cy="666.366" r="8.424" style="fill:none;stroke:#00678f;stroke-width:1px;stroke-linecap:round;"/><circle cx="591.087" cy="685.389" r="8.424" style="fill:none;stroke:#00678f;stroke-width:1px;stroke-linecap:round;"/><circle cx="528.717" cy="719.086" r="8.424" style="fill:none;stroke:#00678f;stroke-width:1px;stroke-linecap:round;"/><circle cx="582.663" cy="719.086" r="8.424" style="fill:none;stroke:#00678f;stroke-width:1px;stroke-linecap:round;"/><circle cx="509.593" cy="639.764" r="8.424" style="fill:none;stroke:#00678f;stroke-width:1px;stroke-linecap:round;"/><circle cx="697.299" cy="644.975" r="8.424" style="fill:none;stroke:#7cb700;stroke-width:1px;stroke-linecap:round;"/><circle cx="601.712" cy="639.764" r="8.424" style="fill:none;stroke:#7cb700;stroke-width:1px;stroke-linecap:round;"/><circle cx="673.844" cy="716.145" r="8.424" style="fill:none;stroke:#7cb700;stroke-width:1px;stroke-linecap:round;"/><circle cx="715.965" cy="712.224" r="8.424" style="fill:none;stroke:#7cb700;stroke-width:1px;stroke-linecap:round;"/><circle cx="699.117" cy="700.063" r="8.424" style="fill:none;stroke:#7cb700;stroke-width:1px;stroke-linecap:round;"/><circle cx="680.66" cy="661.696" r="8.424" style="fill:none;stroke:#7cb700;stroke-width:1px;stroke-linecap:round;"/><circle cx="738.022" cy="699.297" r="8.424" style="fill:none;stroke:#7cb700;stroke-width:1px;stroke-linecap:round;"/><circle cx="714.357" cy="666.366" r="8.424" style="fill:none;stroke:#7cb700;stroke-width:1px;stroke-linecap:round;"/><circle cx="620.765" cy="671.001" r="8.424" style="fill:none;stroke:#7cb700;stroke-width:1px;stroke-linecap:round;"/><circle cx="652.578" cy="699.511" r="8.424" style="fill:none;stroke:#7cb700;stroke-width:1px;stroke-linecap:round;"/><circle cx="669.825" cy="679.109" r="8.424" style="fill:none;stroke:#7cb700;stroke-width:1px;stroke-linecap:round;"/><circle cx="652.977" cy="648.218" r="8.424" style="fill:none;stroke:#7cb700;stroke-width:1px;stroke-linecap:round;"/><path d="M552.757,631.339l105.427,96.171" style="fill:none;stroke:#4a4a4a;stroke-width:1px;stroke-linecap:round;"/><text x="484.655px" y="682.474px" style="font-family:'ArialMT', 'Arial', sans-serif;font-size:11.761px;">x</text><text x="625.155px" y="742.789px" style="font-family:'ArialMT', 'Arial', sans-serif;font-size:11.761px;">y</text></g><rect x="473.336" y="760.695" width="292.64" height="162.006" style="fill:none;stroke:#00678f;stroke-width:4.17px;stroke-linecap:round;"/><rect x="473.336" y="760.695" width="292.64" height="54.944" style="fill:#00678f;"/><text x="564.773px" y="793.184px" style="font-family:'ArialMT', 'Arial', sans-serif;font-size:25px;fill:#fff;">Recurrent</text><g><text x="606.761px" y="866.848px" style="font-family:'Arial-ItalicMT', 'Arial', sans-serif;font-style:italic;font-size:2.538px;">t</text><text x="604.503px" y="868.676px" style="font-family:'Arial-ItalicMT', 'Arial', sans-serif;font-style:italic;font-size:4.354px;">r</text></g><g transform="matrix(0.130624,0,0,0.130624,418.143,614.075)"><text x="1250.58px" y="1798.97px" style="font-family:'Arial-ItalicMT', 'Arial', sans-serif;font-style:italic;font-size:33.333px;">h</text><text x="1269.12px" y="1787.87px" style="font-family:'Arial-ItalicMT', 'Arial', sans-serif;font-style:italic;font-size:19.433px;">t-1</text></g><g><g><text x="650.489px" y="868.585px" style="font-family:'Arial-ItalicMT', 'Arial', sans-serif;font-style:italic;font-size:4.354px;">h</text><text x="650.682px" y="867.212px" style="font-family:'Arial-ItalicMT', 'Arial', sans-serif;font-style:italic;font-size:3.49px;">~</text></g><g><text x="653.247px" y="866.592px" style="font-family:'Arial-ItalicMT', 'Arial', sans-serif;font-style:italic;font-size:2.538px;">t</text></g></g><g transform="matrix(0.130624,0,0,0.130624,458.244,633.688)"><text x="1250.58px" y="1798.97px" style="font-family:'Arial-ItalicMT', 'Arial', sans-serif;font-style:italic;font-size:33.333px;">z</text><text x="1267.25px" y="1787.87px" style="font-family:'Arial-ItalicMT', 'Arial', sans-serif;font-style:italic;font-size:19.433px;">t</text></g><path d="M662.98,855.765c0,-7.102 -5.766,-12.868 -12.868,-12.868l-60.333,0c-7.102,0 -12.868,5.766 -12.868,12.868l0,25.735c0,7.102 5.766,12.868 12.868,12.868l60.333,0c7.102,0 12.868,-5.766 12.868,-12.868l0,-25.735Z" style="fill:#7cb700;fill-opacity:0.411765;stroke:#000;stroke-width:0.42px;stroke-linecap:round;"/><path d="M584.115,903.745c0.042,-4.642 0.073,-9.453 0.113,-12.38c0.024,-1.818 1.378,-3.035 2.117,-3.033c4.783,0.007 -0.889,0.043 3.645,-0.002" style="fill:none;stroke:#000;stroke-width:1.67px;stroke-linecap:round;"/><path d="M584.115,897.349c0.042,-4.642 0.073,-9.453 0.113,-12.381c0.024,-1.817 1.378,-3.034 2.117,-3.033c4.783,0.007 -0.889,0.044 3.645,-0.002" style="fill:none;stroke:#000;stroke-width:1.67px;stroke-linecap:round;"/><path d="M596.914,885.294c0.025,1.818 1.378,3.035 2.118,3.034c4.783,-0.008 -0.89,-0.044 3.645,0.002" style="fill:none;stroke:#000;stroke-width:1.67px;stroke-linecap:round;"/><path d="M584.115,853.533c-0.024,-1.818 -1.378,-3.034 -2.117,-3.033c-4.783,0.007 1.34,0.043 -3.194,-0.002" style="fill:none;stroke:#000;stroke-width:1.67px;stroke-linecap:round;"/><path d="M584.115,866.518c0.042,4.642 0.073,9.453 0.113,12.38c0.024,1.818 1.378,3.034 2.117,3.033c4.783,-0.007 -0.889,-0.044 3.645,0.002" style="fill:none;stroke:#000;stroke-width:1.67px;stroke-linecap:round;"/><path d="M594.23,881.933c4.642,-0.041 9.453,-0.073 12.38,-0.112c1.818,-0.025 3.034,-1.378 3.033,-2.118c-0.007,-4.783 -0.043,0.89 0.002,-3.645" style="fill:none;stroke:#000;stroke-width:1.67px;stroke-linecap:round;"/><path d="M631.606,888.33c4.642,-0.042 9.453,-0.073 12.38,-0.113c1.818,-0.024 3.035,-1.378 3.034,-2.117c-0.008,-4.783 -0.044,0.889 0.002,-3.645" style="fill:none;stroke:#000;stroke-width:1.67px;stroke-linecap:round;"/><path d="M610.416,881.933c4.642,-0.041 9.453,-0.073 12.38,-0.112c1.818,-0.025 3.034,-1.378 3.033,-2.118c-0.007,-4.783 -0.044,0.89 0.002,-3.645" style="fill:none;stroke:#000;stroke-width:1.67px;stroke-linecap:round;"/><path d="M641.247,865.796c-4.642,0.041 -9.453,0.072 -12.381,0.112c-1.817,0.024 -3.034,1.378 -3.033,2.117c0.007,4.784 0.044,-0.889 -0.002,3.645" style="fill:none;stroke:#000;stroke-width:1.67px;stroke-linecap:round;"/><path d="M609.645,876.058c-0.041,-4.642 -0.072,-9.453 -0.112,-12.38c-0.024,-1.818 -1.378,-3.034 -2.117,-3.033c-4.784,0.007 0.889,0.044 -3.645,-0.002" style="fill:none;stroke:#000;stroke-width:1.67px;stroke-linecap:round;"/><path d="M581.499,850.498c4.642,0.041 9.453,0.072 12.38,0.112c1.818,0.024 3.034,1.378 3.033,2.117c-0.007,4.784 -0.044,-0.889 0.002,3.646" style="fill:none;stroke:#000;stroke-width:1.67px;stroke-linecap:round;"/><circle cx="584.115" cy="904.291" r="6.943" style="fill:#00678f;stroke:#000;stroke-width:0.42px;stroke-linecap:round;"/><path d="M584.925,868.633l-1.62,0l0,-15.1l1.62,0l0,15.1Z"/><path d="M597.724,858.09l-1.62,0l0,-4.246l1.62,0l0,4.246Z"/><path d="M597.724,880.389l-1.62,0l0,-19.197l1.62,0l0,19.197Z"/><path d="M626.641,873.981l-1.62,0l0,-18.084l-1.504,0l2.314,-2.314l2.314,2.314l-1.504,0l0,18.084Z"/><path d="M647.832,884.179l-1.62,0l0,-28.282l-1.505,0l2.315,-2.314l2.314,2.314l-1.504,0l0,28.282Z"/><rect x="594.23" y="881.123" width="22.608" height="1.62"/><path d="M597.724,885.556l-1.62,0l0,-1.995l1.62,0l0,1.995Z"/><rect x="588.19" y="887.52" width="48.78" height="1.62"/><rect x="578.307" y="849.688" width="67.529" height="1.62"/><rect x="586.807" y="881.123" width="10.107" height="1.62"/><path d="M602.314,861.453l0,1.504l-2.314,-2.314l2.314,-2.314l0,1.504l4.394,0l0,1.62l-4.394,0Z"/><path d="M641.622,864.986l0,-1.505l2.314,2.315l-2.314,2.314l0,-1.504l-0.851,0l0,-1.62l0.851,0Z"/><path d="M668.443,849.688l0,-1.505l2.314,2.315l-2.314,2.314l0,-1.504l-18.32,0l0,-1.62l18.32,0Z"/><circle cx="596.914" cy="860.491" r="3.086" style="fill:#ef4836;stroke:#000;stroke-width:0.42px;stroke-linecap:round;"/><path d="M595.735,861.67l2.358,-2.358" style="fill:none;stroke:#000;stroke-width:0.42px;stroke-linecap:round;"/><path d="M595.735,859.312l2.358,2.358" style="fill:none;stroke:#000;stroke-width:0.42px;stroke-linecap:round;"/><circle cx="625.831" cy="850.498" r="3.086" style="fill:#ef4836;stroke:#000;stroke-width:0.42px;stroke-linecap:round;"/><path d="M624.652,851.677l2.358,-2.358" style="fill:none;stroke:#000;stroke-width:0.42px;stroke-linecap:round;"/><path d="M624.652,849.319l2.358,2.358" style="fill:none;stroke:#000;stroke-width:0.42px;stroke-linecap:round;"/><circle cx="647.022" cy="865.796" r="3.086" style="fill:#ef4836;stroke:#000;stroke-width:0.42px;stroke-linecap:round;"/><path d="M645.842,866.975l2.359,-2.359" style="fill:none;stroke:#000;stroke-width:0.42px;stroke-linecap:round;"/><path d="M645.842,864.616l2.359,2.359" style="fill:none;stroke:#000;stroke-width:0.42px;stroke-linecap:round;"/><circle cx="647.022" cy="850.498" r="3.086" style="fill:#ef4836;stroke:#000;stroke-width:0.42px;stroke-linecap:round;"/><path d="M645.354,850.498l3.335,0" style="fill:none;stroke:#000;stroke-width:0.42px;stroke-linecap:round;"/><path d="M647.022,848.83l0,3.335" style="fill:none;stroke:#000;stroke-width:0.42px;stroke-linecap:round;"/><path d="M615.817,872.423c0,-0.86 -0.699,-1.558 -1.558,-1.558l-9.227,0c-0.86,0 -1.558,0.698 -1.558,1.558l0,3.116c0,0.859 0.698,1.557 1.558,1.557l9.227,0c0.859,0 1.558,-0.698 1.558,-1.557l0,-3.116Z" style="fill:#fdb50a;stroke:#000;stroke-width:0.42px;stroke-linecap:round;"/><path id="text2407" d="M609.446,872.468c-0.205,-0.004 -0.41,0.038 -0.616,0.123c-0.206,0.086 -0.379,0.238 -0.518,0.457c-0.139,0.22 -0.213,0.528 -0.218,0.927c0.001,0.458 0.117,0.825 0.347,1.098c0.23,0.274 0.565,0.414 1.005,0.421c0.427,-0.007 0.757,-0.147 0.992,-0.421c0.235,-0.273 0.354,-0.64 0.358,-1.098c0.001,-0.379 -0.119,-0.722 -0.358,-1.028l0.759,0l0,-0.457l-1.472,0c-0.079,-0.016 -0.172,-0.023 -0.279,-0.022Zm0,0.402c0.299,0.01 0.514,0.119 0.649,0.33c0.134,0.211 0.201,0.47 0.198,0.775c0,0.331 -0.071,0.597 -0.214,0.797c-0.143,0.2 -0.354,0.303 -0.633,0.308c-0.199,0.009 -0.388,-0.067 -0.565,-0.225c-0.178,-0.158 -0.273,-0.451 -0.285,-0.88c-0.002,-0.296 0.065,-0.551 0.199,-0.766c0.134,-0.216 0.352,-0.328 0.651,-0.339Z" style="fill-rule:nonzero;"/><path d="M632.002,872.423c0,-0.86 -0.698,-1.558 -1.558,-1.558l-9.226,0c-0.86,0 -1.558,0.698 -1.558,1.558l0,3.116c0,0.859 0.698,1.557 1.558,1.557l9.226,0c0.86,0 1.558,-0.698 1.558,-1.557l0,-3.116Z" style="fill:#fdb50a;stroke:#000;stroke-width:0.42px;stroke-linecap:round;"/><path id="text24071" serif:id="text2407" d="M625.631,872.468c-0.204,-0.004 -0.41,0.038 -0.615,0.123c-0.206,0.086 -0.379,0.238 -0.518,0.457c-0.14,0.22 -0.213,0.528 -0.218,0.927c0.001,0.458 0.117,0.825 0.347,1.098c0.229,0.274 0.565,0.414 1.004,0.421c0.428,-0.007 0.758,-0.147 0.993,-0.421c0.235,-0.273 0.354,-0.64 0.357,-1.098c0.001,-0.379 -0.118,-0.722 -0.357,-1.028l0.759,0l0,-0.457l-1.472,0c-0.08,-0.016 -0.173,-0.023 -0.28,-0.022Zm0,0.402c0.3,0.01 0.515,0.119 0.649,0.33c0.135,0.211 0.201,0.47 0.199,0.775c0,0.331 -0.072,0.597 -0.214,0.797c-0.143,0.2 -0.354,0.303 -0.634,0.308c-0.199,0.009 -0.387,-0.067 -0.565,-0.225c-0.177,-0.158 -0.272,-0.451 -0.284,-0.88c-0.002,-0.296 0.064,-0.551 0.199,-0.766c0.134,-0.216 0.351,-0.328 0.65,-0.339Z" style="fill-rule:nonzero;"/><path d="M653.193,872.423c0,-0.86 -0.698,-1.558 -1.558,-1.558l-9.227,0c-0.86,0 -1.558,0.698 -1.558,1.558l0,3.116c0,0.859 0.698,1.557 1.558,1.557l9.227,0c0.86,0 1.558,-0.698 1.558,-1.557l0,-3.116Z" style="fill:#fdb50a;stroke:#000;stroke-width:0.42px;stroke-linecap:round;"/><text x="642.931px" y="875.19px" style="font-family:'ArialMT', 'Arial', sans-serif;font-size:3.877px;">tanh</text><ellipse cx="625.831" cy="860.68" rx="6.19" ry="2.912" style="fill:#ef4836;stroke:#000;stroke-width:0.42px;stroke-linecap:round;"/><text x="623.727px" y="861.875px" style="font-family:'ArialMT', 'Arial', sans-serif;font-size:3.225px;">1-</text><g transform="matrix(0.130624,0,0,0.130624,529.643,639.03)"><text x="397.166px" y="2048.01px" style="font-family:'Arial-ItalicMT', 'Arial', sans-serif;font-style:italic;font-size:54.136px;">x</text><text x="424.234px" y="2029.99px" style="font-family:'Arial-ItalicMT', 'Arial', sans-serif;font-style:italic;font-size:31.561px;">t</text></g><path d="M578.378,851.308l-0.475,0l0.171,-0.484l0.73,0.088l-0.426,0.396Z" style="stroke:#000;stroke-width:0.42px;stroke-linecap:butt;stroke-miterlimit:1.41421;"/><g><text x="513.761px" y="866.848px" style="font-family:'Arial-ItalicMT', 'Arial', sans-serif;font-style:italic;font-size:2.538px;">t</text><text x="511.503px" y="868.676px" style="font-family:'Arial-ItalicMT', 'Arial', sans-serif;font-style:italic;font-size:4.354px;">r</text></g><g transform="matrix(0.130624,0,0,0.130624,325.143,614.075)"><text x="1250.58px" y="1798.97px" style="font-family:'Arial-ItalicMT', 'Arial', sans-serif;font-style:italic;font-size:33.333px;">h</text><text x="1269.12px" y="1787.87px" style="font-family:'Arial-ItalicMT', 'Arial', sans-serif;font-style:italic;font-size:19.433px;">t-1</text></g><g><g><text x="557.489px" y="868.585px" style="font-family:'Arial-ItalicMT', 'Arial', sans-serif;font-style:italic;font-size:4.354px;">h</text><text x="557.682px" y="867.212px" style="font-family:'Arial-ItalicMT', 'Arial', sans-serif;font-style:italic;font-size:3.49px;">~</text></g><g><text x="560.247px" y="866.592px" style="font-family:'Arial-ItalicMT', 'Arial', sans-serif;font-style:italic;font-size:2.538px;">t</text></g></g><g transform="matrix(0.130624,0,0,0.130624,365.244,633.688)"><text x="1250.58px" y="1798.97px" style="font-family:'Arial-ItalicMT', 'Arial', sans-serif;font-style:italic;font-size:33.333px;">z</text><text x="1267.25px" y="1787.87px" style="font-family:'Arial-ItalicMT', 'Arial', sans-serif;font-style:italic;font-size:19.433px;">t</text></g><path d="M491.115,903.745c0.042,-4.642 0.073,-9.453 0.113,-12.38c0.024,-1.818 1.378,-3.035 2.117,-3.033c4.783,0.007 -0.889,0.043 3.645,-0.002" style="fill:none;stroke:#000;stroke-width:1.67px;stroke-linecap:round;"/><path d="M491.115,897.349c0.042,-4.642 0.073,-9.453 0.113,-12.381c0.024,-1.817 1.378,-3.034 2.117,-3.033c4.783,0.007 -0.889,0.044 3.645,-0.002" style="fill:none;stroke:#000;stroke-width:1.67px;stroke-linecap:round;"/><path d="M503.914,885.294c0.025,1.818 1.378,3.035 2.118,3.034c4.783,-0.008 -0.89,-0.044 3.645,0.002" style="fill:none;stroke:#000;stroke-width:1.67px;stroke-linecap:round;"/><path d="M491.115,853.533c-0.024,-1.818 -1.378,-3.034 -2.117,-3.033c-4.783,0.007 1.34,0.043 -3.194,-0.002" style="fill:none;stroke:#000;stroke-width:1.67px;stroke-linecap:round;"/><path d="M491.115,866.518c0.042,4.642 0.073,9.453 0.113,12.38c0.024,1.818 1.378,3.034 2.117,3.033c4.783,-0.007 -0.889,-0.044 3.645,0.002" style="fill:none;stroke:#000;stroke-width:1.67px;stroke-linecap:round;"/><path d="M501.23,881.933c4.642,-0.041 9.453,-0.073 12.38,-0.112c1.818,-0.025 3.034,-1.378 3.033,-2.118c-0.007,-4.783 -0.043,0.89 0.002,-3.645" style="fill:none;stroke:#000;stroke-width:1.67px;stroke-linecap:round;"/><path d="M538.606,888.33c4.642,-0.042 9.453,-0.073 12.38,-0.113c1.818,-0.024 3.035,-1.378 3.034,-2.117c-0.008,-4.783 -0.044,0.889 0.002,-3.645" style="fill:none;stroke:#000;stroke-width:1.67px;stroke-linecap:round;"/><path d="M517.416,881.933c4.642,-0.041 9.453,-0.073 12.38,-0.112c1.818,-0.025 3.034,-1.378 3.033,-2.118c-0.007,-4.783 -0.044,0.89 0.002,-3.645" style="fill:none;stroke:#000;stroke-width:1.67px;stroke-linecap:round;"/><path d="M548.247,865.796c-4.642,0.041 -9.453,0.072 -12.381,0.112c-1.817,0.024 -3.034,1.378 -3.033,2.117c0.007,4.784 0.044,-0.889 -0.002,3.645" style="fill:none;stroke:#000;stroke-width:1.67px;stroke-linecap:round;"/><path d="M516.645,876.058c-0.041,-4.642 -0.072,-9.453 -0.112,-12.38c-0.024,-1.818 -1.378,-3.034 -2.117,-3.033c-4.784,0.007 0.889,0.044 -3.645,-0.002" style="fill:none;stroke:#000;stroke-width:1.67px;stroke-linecap:round;"/><path d="M488.499,850.498c4.642,0.041 9.453,0.072 12.38,0.112c1.818,0.024 3.034,1.378 3.033,2.117c-0.007,4.784 -0.044,-0.889 0.002,3.646" style="fill:none;stroke:#000;stroke-width:1.67px;stroke-linecap:round;"/><circle cx="491.115" cy="904.291" r="6.943" style="fill:#00678f;stroke:#000;stroke-width:0.42px;stroke-linecap:round;"/><path d="M491.925,868.633l-1.62,0l0,-15.1l1.62,0l0,15.1Z"/><path d="M504.724,858.09l-1.62,0l0,-4.246l1.62,0l0,4.246Z"/><path d="M504.724,880.389l-1.62,0l0,-19.197l1.62,0l0,19.197Z"/><path d="M533.641,873.981l-1.62,0l0,-18.084l-1.504,0l2.314,-2.314l2.314,2.314l-1.504,0l0,18.084Z"/><path d="M554.832,884.179l-1.62,0l0,-28.282l-1.505,0l2.315,-2.314l2.314,2.314l-1.504,0l0,28.282Z"/><rect x="501.23" y="881.123" width="22.608" height="1.62"/><path d="M504.724,885.556l-1.62,0l0,-1.995l1.62,0l0,1.995Z"/><rect x="495.19" y="887.52" width="48.78" height="1.62"/><rect x="485.307" y="849.688" width="67.529" height="1.62"/><rect x="493.807" y="881.123" width="10.107" height="1.62"/><path d="M509.314,861.453l0,1.504l-2.314,-2.314l2.314,-2.314l0,1.504l4.394,0l0,1.62l-4.394,0Z"/><path d="M548.622,864.986l0,-1.505l2.314,2.315l-2.314,2.314l0,-1.504l-0.851,0l0,-1.62l0.851,0Z"/><path d="M575.443,849.688l0,-1.505l2.314,2.315l-2.314,2.314l0,-1.504l-18.32,0l0,-1.62l18.32,0Z"/><circle cx="503.914" cy="860.491" r="3.086" style="fill:#ef4836;stroke:#000;stroke-width:0.42px;stroke-linecap:round;"/><path d="M502.735,861.67l2.358,-2.358" style="fill:none;stroke:#000;stroke-width:0.42px;stroke-linecap:round;"/><path d="M502.735,859.312l2.358,2.358" style="fill:none;stroke:#000;stroke-width:0.42px;stroke-linecap:round;"/><circle cx="532.831" cy="850.498" r="3.086" style="fill:#ef4836;stroke:#000;stroke-width:0.42px;stroke-linecap:round;"/><path d="M531.652,851.677l2.358,-2.358" style="fill:none;stroke:#000;stroke-width:0.42px;stroke-linecap:round;"/><path d="M531.652,849.319l2.358,2.358" style="fill:none;stroke:#000;stroke-width:0.42px;stroke-linecap:round;"/><circle cx="554.022" cy="865.796" r="3.086" style="fill:#ef4836;stroke:#000;stroke-width:0.42px;stroke-linecap:round;"/><path d="M552.842,866.975l2.359,-2.359" style="fill:none;stroke:#000;stroke-width:0.42px;stroke-linecap:round;"/><path d="M552.842,864.616l2.359,2.359" style="fill:none;stroke:#000;stroke-width:0.42px;stroke-linecap:round;"/><circle cx="554.022" cy="850.498" r="3.086" style="fill:#ef4836;stroke:#000;stroke-width:0.42px;stroke-linecap:round;"/><path d="M552.354,850.498l3.335,0" style="fill:none;stroke:#000;stroke-width:0.42px;stroke-linecap:round;"/><path d="M554.022,848.83l0,3.335" style="fill:none;stroke:#000;stroke-width:0.42px;stroke-linecap:round;"/><path d="M522.817,872.423c0,-0.86 -0.699,-1.558 -1.558,-1.558l-9.227,0c-0.86,0 -1.558,0.698 -1.558,1.558l0,3.116c0,0.859 0.698,1.557 1.558,1.557l9.227,0c0.859,0 1.558,-0.698 1.558,-1.557l0,-3.116Z" style="fill:#fdb50a;stroke:#000;stroke-width:0.42px;stroke-linecap:round;"/><path id="text24072" serif:id="text2407" d="M516.446,872.468c-0.205,-0.004 -0.41,0.038 -0.616,0.123c-0.206,0.086 -0.379,0.238 -0.518,0.457c-0.139,0.22 -0.213,0.528 -0.218,0.927c0.001,0.458 0.117,0.825 0.347,1.098c0.23,0.274 0.565,0.414 1.005,0.421c0.427,-0.007 0.757,-0.147 0.992,-0.421c0.235,-0.273 0.354,-0.64 0.358,-1.098c0.001,-0.379 -0.119,-0.722 -0.358,-1.028l0.759,0l0,-0.457l-1.472,0c-0.079,-0.016 -0.172,-0.023 -0.279,-0.022Zm0,0.402c0.299,0.01 0.514,0.119 0.649,0.33c0.134,0.211 0.201,0.47 0.198,0.775c0,0.331 -0.071,0.597 -0.214,0.797c-0.143,0.2 -0.354,0.303 -0.633,0.308c-0.199,0.009 -0.388,-0.067 -0.565,-0.225c-0.178,-0.158 -0.273,-0.451 -0.285,-0.88c-0.002,-0.296 0.065,-0.551 0.199,-0.766c0.134,-0.216 0.352,-0.328 0.651,-0.339Z" style="fill-rule:nonzero;"/><path d="M539.002,872.423c0,-0.86 -0.698,-1.558 -1.558,-1.558l-9.226,0c-0.86,0 -1.558,0.698 -1.558,1.558l0,3.116c0,0.859 0.698,1.557 1.558,1.557l9.226,0c0.86,0 1.558,-0.698 1.558,-1.557l0,-3.116Z" style="fill:#fdb50a;stroke:#000;stroke-width:0.42px;stroke-linecap:round;"/><path id="text24073" serif:id="text2407" d="M532.631,872.468c-0.204,-0.004 -0.41,0.038 -0.615,0.123c-0.206,0.086 -0.379,0.238 -0.518,0.457c-0.14,0.22 -0.213,0.528 -0.218,0.927c0.001,0.458 0.117,0.825 0.347,1.098c0.229,0.274 0.565,0.414 1.004,0.421c0.428,-0.007 0.758,-0.147 0.993,-0.421c0.235,-0.273 0.354,-0.64 0.357,-1.098c0.001,-0.379 -0.118,-0.722 -0.357,-1.028l0.759,0l0,-0.457l-1.472,0c-0.08,-0.016 -0.173,-0.023 -0.28,-0.022Zm0,0.402c0.3,0.01 0.515,0.119 0.649,0.33c0.135,0.211 0.201,0.47 0.199,0.775c0,0.331 -0.072,0.597 -0.214,0.797c-0.143,0.2 -0.354,0.303 -0.634,0.308c-0.199,0.009 -0.387,-0.067 -0.565,-0.225c-0.177,-0.158 -0.272,-0.451 -0.284,-0.88c-0.002,-0.296 0.064,-0.551 0.199,-0.766c0.134,-0.216 0.351,-0.328 0.65,-0.339Z" style="fill-rule:nonzero;"/><path d="M560.193,872.423c0,-0.86 -0.698,-1.558 -1.558,-1.558l-9.227,0c-0.86,0 -1.558,0.698 -1.558,1.558l0,3.116c0,0.859 0.698,1.557 1.558,1.557l9.227,0c0.86,0 1.558,-0.698 1.558,-1.557l0,-3.116Z" style="fill:#fdb50a;stroke:#000;stroke-width:0.42px;stroke-linecap:round;"/><text x="549.931px" y="875.19px" style="font-family:'ArialMT', 'Arial', sans-serif;font-size:3.877px;">tanh</text><ellipse cx="532.831" cy="860.68" rx="6.19" ry="2.912" style="fill:#ef4836;stroke:#000;stroke-width:0.42px;stroke-linecap:round;"/><text x="530.727px" y="861.875px" style="font-family:'ArialMT', 'Arial', sans-serif;font-size:3.225px;">1-</text><g transform="matrix(0.130624,0,0,0.130624,436.643,639.03)"><text x="397.166px" y="2048.01px" style="font-family:'Arial-ItalicMT', 'Arial', sans-serif;font-style:italic;font-size:54.136px;">x</text><text x="424.234px" y="2029.99px" style="font-family:'Arial-ItalicMT', 'Arial', sans-serif;font-style:italic;font-size:31.561px;">t</text></g><path d="M485.378,851.308l-0.475,0l0.171,-0.484l0.73,0.088l-0.426,0.396Z" style="stroke:#000;stroke-width:0.42px;stroke-linecap:butt;stroke-miterlimit:1.41421;"/><g><text x="699.761px" y="866.848px" style="font-family:'Arial-ItalicMT', 'Arial', sans-serif;font-style:italic;font-size:2.538px;">t</text><text x="697.503px" y="868.676px" style="font-family:'Arial-ItalicMT', 'Arial', sans-serif;font-style:italic;font-size:4.354px;">r</text></g><g transform="matrix(0.130624,0,0,0.130624,511.143,614.075)"><text x="1250.58px" y="1798.97px" style="font-family:'Arial-ItalicMT', 'Arial', sans-serif;font-style:italic;font-size:33.333px;">h</text><text x="1269.12px" y="1787.87px" style="font-family:'Arial-ItalicMT', 'Arial', sans-serif;font-style:italic;font-size:19.433px;">t-1</text></g><g><g><text x="743.489px" y="868.585px" style="font-family:'Arial-ItalicMT', 'Arial', sans-serif;font-style:italic;font-size:4.354px;">h</text><text x="743.682px" y="867.212px" style="font-family:'Arial-ItalicMT', 'Arial', sans-serif;font-style:italic;font-size:3.49px;">~</text></g><g><text x="746.247px" y="866.592px" style="font-family:'Arial-ItalicMT', 'Arial', sans-serif;font-style:italic;font-size:2.538px;">t</text></g></g><g transform="matrix(0.130624,0,0,0.130624,551.244,633.688)"><text x="1250.58px" y="1798.97px" style="font-family:'Arial-ItalicMT', 'Arial', sans-serif;font-style:italic;font-size:33.333px;">z</text><text x="1267.25px" y="1787.87px" style="font-family:'Arial-ItalicMT', 'Arial', sans-serif;font-style:italic;font-size:19.433px;">t</text></g><path d="M677.115,903.745c0.042,-4.642 0.073,-9.453 0.113,-12.38c0.024,-1.818 1.378,-3.035 2.117,-3.033c4.783,0.007 -0.889,0.043 3.645,-0.002" style="fill:none;stroke:#000;stroke-width:1.67px;stroke-linecap:round;"/><path d="M677.115,897.349c0.042,-4.642 0.073,-9.453 0.113,-12.381c0.024,-1.817 1.378,-3.034 2.117,-3.033c4.783,0.007 -0.889,0.044 3.645,-0.002" style="fill:none;stroke:#000;stroke-width:1.67px;stroke-linecap:round;"/><path d="M689.914,885.294c0.025,1.818 1.378,3.035 2.118,3.034c4.783,-0.008 -0.89,-0.044 3.645,0.002" style="fill:none;stroke:#000;stroke-width:1.67px;stroke-linecap:round;"/><path d="M677.115,853.533c-0.024,-1.818 -1.378,-3.034 -2.117,-3.033c-4.783,0.007 1.34,0.043 -3.194,-0.002" style="fill:none;stroke:#000;stroke-width:1.67px;stroke-linecap:round;"/><path d="M677.115,866.518c0.042,4.642 0.073,9.453 0.113,12.38c0.024,1.818 1.378,3.034 2.117,3.033c4.783,-0.007 -0.889,-0.044 3.645,0.002" style="fill:none;stroke:#000;stroke-width:1.67px;stroke-linecap:round;"/><path d="M687.23,881.933c4.642,-0.041 9.453,-0.073 12.38,-0.112c1.818,-0.025 3.034,-1.378 3.033,-2.118c-0.007,-4.783 -0.043,0.89 0.002,-3.645" style="fill:none;stroke:#000;stroke-width:1.67px;stroke-linecap:round;"/><path d="M724.606,888.33c4.642,-0.042 9.453,-0.073 12.38,-0.113c1.818,-0.024 3.035,-1.378 3.034,-2.117c-0.008,-4.783 -0.044,0.889 0.002,-3.645" style="fill:none;stroke:#000;stroke-width:1.67px;stroke-linecap:round;"/><path d="M703.416,881.933c4.642,-0.041 9.453,-0.073 12.38,-0.112c1.818,-0.025 3.034,-1.378 3.033,-2.118c-0.007,-4.783 -0.044,0.89 0.002,-3.645" style="fill:none;stroke:#000;stroke-width:1.67px;stroke-linecap:round;"/><path d="M734.247,865.796c-4.642,0.041 -9.453,0.072 -12.381,0.112c-1.817,0.024 -3.034,1.378 -3.033,2.117c0.007,4.784 0.044,-0.889 -0.002,3.645" style="fill:none;stroke:#000;stroke-width:1.67px;stroke-linecap:round;"/><path d="M702.645,876.058c-0.041,-4.642 -0.072,-9.453 -0.112,-12.38c-0.024,-1.818 -1.378,-3.034 -2.117,-3.033c-4.784,0.007 0.889,0.044 -3.645,-0.002" style="fill:none;stroke:#000;stroke-width:1.67px;stroke-linecap:round;"/><path d="M674.499,850.498c4.642,0.041 9.453,0.072 12.38,0.112c1.818,0.024 3.034,1.378 3.033,2.117c-0.007,4.784 -0.044,-0.889 0.002,3.646" style="fill:none;stroke:#000;stroke-width:1.67px;stroke-linecap:round;"/><circle cx="677.115" cy="904.291" r="6.943" style="fill:#00678f;stroke:#000;stroke-width:0.42px;stroke-linecap:round;"/><circle cx="740.022" cy="829.706" r="6.943" style="fill:#7cb700;stroke:#000;stroke-width:0.42px;stroke-linecap:round;"/><path d="M677.925,868.633l-1.62,0l0,-15.1l1.62,0l0,15.1Z"/><path d="M690.724,858.09l-1.62,0l0,-4.246l1.62,0l0,4.246Z"/><path d="M690.724,880.389l-1.62,0l0,-19.197l1.62,0l0,19.197Z"/><path d="M719.641,873.981l-1.62,0l0,-18.084l-1.504,0l2.314,-2.314l2.314,2.314l-1.504,0l0,18.084Z"/><path d="M740.832,884.179l-1.62,0l0,-28.282l-1.505,0l2.315,-2.314l2.314,2.314l-1.504,0l0,28.282Z"/><path d="M740.938,850.498l-1.62,0l0,-11.317l-1.504,0l2.314,-2.314l2.314,2.314l-1.504,0l0,11.317Z"/><rect x="687.23" y="881.123" width="22.608" height="1.62"/><path d="M690.724,885.556l-1.62,0l0,-1.995l1.62,0l0,1.995Z"/><rect x="681.19" y="887.52" width="48.78" height="1.62"/><rect x="671.307" y="849.688" width="67.529" height="1.62"/><rect x="679.807" y="881.123" width="10.107" height="1.62"/><path d="M695.314,861.453l0,1.504l-2.314,-2.314l2.314,-2.314l0,1.504l4.394,0l0,1.62l-4.394,0Z"/><path d="M734.622,864.986l0,-1.505l2.314,2.315l-2.314,2.314l0,-1.504l-0.851,0l0,-1.62l0.851,0Z"/><circle cx="689.914" cy="860.491" r="3.086" style="fill:#ef4836;stroke:#000;stroke-width:0.42px;stroke-linecap:round;"/><path d="M688.735,861.67l2.358,-2.358" style="fill:none;stroke:#000;stroke-width:0.42px;stroke-linecap:round;"/><path d="M688.735,859.312l2.358,2.358" style="fill:none;stroke:#000;stroke-width:0.42px;stroke-linecap:round;"/><circle cx="718.831" cy="850.498" r="3.086" style="fill:#ef4836;stroke:#000;stroke-width:0.42px;stroke-linecap:round;"/><path d="M717.652,851.677l2.358,-2.358" style="fill:none;stroke:#000;stroke-width:0.42px;stroke-linecap:round;"/><path d="M717.652,849.319l2.358,2.358" style="fill:none;stroke:#000;stroke-width:0.42px;stroke-linecap:round;"/><circle cx="740.022" cy="865.796" r="3.086" style="fill:#ef4836;stroke:#000;stroke-width:0.42px;stroke-linecap:round;"/><path d="M738.842,866.975l2.359,-2.359" style="fill:none;stroke:#000;stroke-width:0.42px;stroke-linecap:round;"/><path d="M738.842,864.616l2.359,2.359" style="fill:none;stroke:#000;stroke-width:0.42px;stroke-linecap:round;"/><circle cx="740.022" cy="850.498" r="3.086" style="fill:#ef4836;stroke:#000;stroke-width:0.42px;stroke-linecap:round;"/><path d="M738.354,850.498l3.335,0" style="fill:none;stroke:#000;stroke-width:0.42px;stroke-linecap:round;"/><path d="M740.022,848.83l0,3.335" style="fill:none;stroke:#000;stroke-width:0.42px;stroke-linecap:round;"/><path d="M708.817,872.423c0,-0.86 -0.699,-1.558 -1.558,-1.558l-9.227,0c-0.86,0 -1.558,0.698 -1.558,1.558l0,3.116c0,0.859 0.698,1.557 1.558,1.557l9.227,0c0.859,0 1.558,-0.698 1.558,-1.557l0,-3.116Z" style="fill:#fdb50a;stroke:#000;stroke-width:0.42px;stroke-linecap:round;"/><path id="text24074" serif:id="text2407" d="M702.446,872.468c-0.205,-0.004 -0.41,0.038 -0.616,0.123c-0.206,0.086 -0.379,0.238 -0.518,0.457c-0.139,0.22 -0.213,0.528 -0.218,0.927c0.001,0.458 0.117,0.825 0.347,1.098c0.23,0.274 0.565,0.414 1.005,0.421c0.427,-0.007 0.757,-0.147 0.992,-0.421c0.235,-0.273 0.354,-0.64 0.358,-1.098c0.001,-0.379 -0.119,-0.722 -0.358,-1.028l0.759,0l0,-0.457l-1.472,0c-0.079,-0.016 -0.172,-0.023 -0.279,-0.022Zm0,0.402c0.299,0.01 0.514,0.119 0.649,0.33c0.134,0.211 0.201,0.47 0.198,0.775c0,0.331 -0.071,0.597 -0.214,0.797c-0.143,0.2 -0.354,0.303 -0.633,0.308c-0.199,0.009 -0.388,-0.067 -0.565,-0.225c-0.178,-0.158 -0.273,-0.451 -0.285,-0.88c-0.002,-0.296 0.065,-0.551 0.199,-0.766c0.134,-0.216 0.352,-0.328 0.651,-0.339Z" style="fill-rule:nonzero;"/><path d="M725.002,872.423c0,-0.86 -0.698,-1.558 -1.558,-1.558l-9.226,0c-0.86,0 -1.558,0.698 -1.558,1.558l0,3.116c0,0.859 0.698,1.557 1.558,1.557l9.226,0c0.86,0 1.558,-0.698 1.558,-1.557l0,-3.116Z" style="fill:#fdb50a;stroke:#000;stroke-width:0.42px;stroke-linecap:round;"/><path id="text24075" serif:id="text2407" d="M718.631,872.468c-0.204,-0.004 -0.41,0.038 -0.615,0.123c-0.206,0.086 -0.379,0.238 -0.518,0.457c-0.14,0.22 -0.213,0.528 -0.218,0.927c0.001,0.458 0.117,0.825 0.347,1.098c0.229,0.274 0.565,0.414 1.004,0.421c0.428,-0.007 0.758,-0.147 0.993,-0.421c0.235,-0.273 0.354,-0.64 0.357,-1.098c0.001,-0.379 -0.118,-0.722 -0.357,-1.028l0.759,0l0,-0.457l-1.472,0c-0.08,-0.016 -0.173,-0.023 -0.28,-0.022Zm0,0.402c0.3,0.01 0.515,0.119 0.649,0.33c0.135,0.211 0.201,0.47 0.199,0.775c0,0.331 -0.072,0.597 -0.214,0.797c-0.143,0.2 -0.354,0.303 -0.634,0.308c-0.199,0.009 -0.387,-0.067 -0.565,-0.225c-0.177,-0.158 -0.272,-0.451 -0.284,-0.88c-0.002,-0.296 0.064,-0.551 0.199,-0.766c0.134,-0.216 0.351,-0.328 0.65,-0.339Z" style="fill-rule:nonzero;"/><path d="M746.193,872.423c0,-0.86 -0.698,-1.558 -1.558,-1.558l-9.227,0c-0.86,0 -1.558,0.698 -1.558,1.558l0,3.116c0,0.859 0.698,1.557 1.558,1.557l9.227,0c0.86,0 1.558,-0.698 1.558,-1.557l0,-3.116Z" style="fill:#fdb50a;stroke:#000;stroke-width:0.42px;stroke-linecap:round;"/><text x="735.931px" y="875.19px" style="font-family:'ArialMT', 'Arial', sans-serif;font-size:3.877px;">tanh</text><ellipse cx="718.831" cy="860.68" rx="6.19" ry="2.912" style="fill:#ef4836;stroke:#000;stroke-width:0.42px;stroke-linecap:round;"/><text x="716.727px" y="861.875px" style="font-family:'ArialMT', 'Arial', sans-serif;font-size:3.225px;">1-</text><g transform="matrix(0.130624,0,0,0.130624,622.643,639.03)"><text x="397.166px" y="2048.01px" style="font-family:'Arial-ItalicMT', 'Arial', sans-serif;font-style:italic;font-size:54.136px;">x</text><text x="424.234px" y="2029.99px" style="font-family:'Arial-ItalicMT', 'Arial', sans-serif;font-style:italic;font-size:31.561px;">t</text></g><g transform="matrix(0.130624,0,0,0.130624,685.305,564.507)"><text x="397.166px" y="2048.01px" style="font-family:'Arial-ItalicMT', 'Arial', sans-serif;font-style:italic;font-size:54.136px;">h</text><text x="427.274px" y="2029.99px" style="font-family:'Arial-ItalicMT', 'Arial', sans-serif;font-style:italic;font-size:31.561px;">t</text></g><path d="M671.378,851.308l-0.475,0l0.171,-0.484l0.73,0.088l-0.426,0.396Z" style="stroke:#000;stroke-width:0.42px;stroke-linecap:butt;stroke-miterlimit:1.41421;"/><path d="M569.98,855.765c0,-7.102 -5.766,-12.868 -12.868,-12.868l-60.333,0c-7.102,0 -12.868,5.766 -12.868,12.868l0,25.735c0,7.102 5.766,12.868 12.868,12.868l60.333,0c7.102,0 12.868,-5.766 12.868,-12.868l0,-25.735Z" style="fill:#7cb700;fill-opacity:0.854902;stroke:#000;stroke-width:0.42px;stroke-linecap:round;"/><path d="M755.4,856.35c0,-7.101 -5.766,-12.867 -12.868,-12.867l-60.333,0c-7.102,0 -12.867,5.766 -12.867,12.867l0,25.736c0,7.102 5.765,12.868 12.867,12.868l60.333,0c7.102,0 12.868,-5.766 12.868,-12.868l0,-25.736Z" style="fill:#7cb700;fill-opacity:0.847059;stroke:#000;stroke-width:0.42px;stroke-linecap:round;"/></g><path d="M1121.98,465.634l34.932,0.01" style="fill:none;stroke:#7cb700;stroke-width:2.08px;stroke-linecap:round;"/><path d="M1449.55,466.535l35.562,0" style="fill:none;stroke:#7cb700;stroke-width:2.08px;stroke-linecap:round;"/><path d="M1267.93,443.079l23.719,0" style="fill:none;stroke:#7cb700;stroke-width:2.08px;stroke-linecap:round;"/><path d="M1267.93,475.155l23.719,0" style="fill:none;stroke:#7cb700;stroke-width:2.08px;stroke-linecap:round;"/><path d="M1267.93,507.231l23.719,0" style="fill:none;stroke:#7cb700;stroke-width:2.08px;stroke-linecap:round;"/><path d="M1267.93,539.307l23.719,0" style="fill:none;stroke:#7cb700;stroke-width:2.08px;stroke-linecap:round;"/><path d="M1332.72,539.307l23.719,-48.114" style="fill:none;stroke:#7cb700;stroke-width:2.08px;stroke-linecap:round;"/><path d="M1332.72,507.231l23.719,-16.038" style="fill:none;stroke:#7cb700;stroke-width:2.08px;stroke-linecap:round;"/><path d="M1332.72,475.155l23.719,16.038" style="fill:none;stroke:#7cb700;stroke-width:2.08px;stroke-linecap:round;"/><path d="M1332.72,443.079l23.719,48.114" style="fill:none;stroke:#7cb700;stroke-width:2.08px;stroke-linecap:round;"/><rect x="15.291" y="512.751" width="292.64" height="54.944" style="fill:#00678f;"/><text x="58.779px" y="549.177px" style="font-family:'ArialMT', 'Arial', sans-serif;font-size:25px;fill:#fff;">T<tspan x="71.279px 85.183px " y="549.177px 549.177px ">op</tspan>ic-Embeddings</text><rect x="15.291" y="436.591" width="292.64" height="54.944" style="fill:#00678f;"/><rect x="15.291" y="364.919" width="292.64" height="54.944" style="fill:#00678f;"/><g transform="matrix(1,0,0,1,-215.054,-320.062)"><text x="303.026px" y="780.17px" style="font-family:'ArialMT', 'Arial', sans-serif;font-size:25px;fill:#fff;">Scientic text</text><text x="336.376px" y="805.988px" style="font-family:'ArialMT', 'Arial', sans-serif;font-size:25px;fill:#fff;">vectors</text></g><rect x="15.291" y="589.509" width="292.64" height="54.944" style="fill:#00678f;"/><text x="46.261px" y="625.935px" style="font-family:'ArialMT', 'Arial', sans-serif;font-size:25px;fill:#fff;">Inputtext-Embedding</text><rect x="15.291" y="288.618" width="292.64" height="54.944" style="fill:#00678f;"/><text x="113.662px" y="325.044px" style="font-family:'ArialMT', 'Arial', sans-serif;font-size:25px;fill:#fff;">Inputtext</text><rect x="933.402" y="438.162" width="188.575" height="54.944" style="fill:#00678f;"/><text x="963.748px" y="470.65px" style="font-family:'ArialMT', 'Arial', sans-serif;font-size:25px;fill:#fff;">Einordnung</text><rect x="1485.11" y="430.153" width="188.575" height="70.982" style="fill:#00678f;"/><g transform="matrix(1,0,0,1,1240.28,-315.218)"><text x="305.069px" y="774.561px" style="font-family:'ArialMT', 'Arial', sans-serif;font-size:25px;fill:#fff;">Finale</text><text x="275.174px" y="800.379px" style="font-family:'ArialMT', 'Arial', sans-serif;font-size:25px;fill:#fff;">Einordnung</text></g><rect x="1156.91" y="367.075" width="292.64" height="198.92" style="fill:none;stroke:#00678f;stroke-width:4.17px;stroke-linecap:round;"/><rect x="1156.91" y="367.075" width="292.64" height="54.944" style="fill:#00678f;"/><text x="1247.64px" y="399.564px" style="font-family:'ArialMT', 'Arial', sans-serif;font-size:25px;fill:#fff;">Ensemble</text><rect x="1226.86" y="433.568" width="41.07" height="19.023" style="fill:#00678f;"/><rect x="1226.86" y="465.644" width="41.07" height="19.023" style="fill:#00678f;"/><rect x="1226.86" y="497.72" width="41.07" height="19.023" style="fill:#00678f;"/><rect x="1226.86" y="529.796" width="41.07" height="19.023" style="fill:#00678f;"/><rect x="1291.65" y="433.568" width="41.07" height="19.023" style="fill:#00678f;"/><rect x="1291.65" y="465.644" width="41.07" height="19.023" style="fill:#00678f;"/><rect x="1291.65" y="497.72" width="41.07" height="19.023" style="fill:#00678f;"/><rect x="1356.44" y="465.644" width="23.161" height="51.099" style="fill:#00678f;"/><rect x="1291.65" y="529.796" width="41.07" height="19.023" style="fill:#00678f;"/><text x="126.18px" y="401.345px" style="font-family:'ArialMT', 'Arial', sans-serif;font-size:25px;fill:#fff;">T<tspan x="138.68px 152.584px " y="401.345px 401.345px ">op</tspan>ics</text></svg>